URWGothicL-Book-fucked.ufo
<glyph name="space" format="1">
  <advance width="277"/>
  <unicode hex="0020"/>
  <outline>
    <contour>
      <point x="620" y="0"  type="line"/>
      <point x="546" y="0" type="line"/>
      <point x="546" y="96" type="line"/>
      <point x="335" y="-13" type="line"/>
      <point x="42" y="272" type="line"/>
      <point x="330" y="560" type="line"/>
      <point x="546" y="450" type="line"/>
      <point x="546" y="547" type="line"/>
      <point x="620" y="547" type="line"/>
    </contour>
    <contour>
      <point x="117" y="277" type="line"/>
      <point x="336" y="55" type="line"/>
      <point x="546" y="276" type="line"/>
      <point x="332" y="492" type="line"/>
    </contour>
  </outline>
</glyph>
<glyph name="parenright" format="1">
  <advance width="369"/>
  <unicode hex="0029"/>
  <outline>
    <contour>
      <point x="34" y="-125" type="curve"/>
      <point x="34" y="-61" type="line"/>
      <point x="92" y="-27"/>
      <point x="129" y="9"/>
      <point x="163" y="63" type="curve" smooth="yes"/>
      <point x="213" y="141"/>
      <point x="238" y="224"/>
      <point x="238" y="306" type="curve" smooth="yes"/>
      <point x="238" y="400"/>
      <point x="203" y="499"/>
      <point x="143" y="579" type="curve" smooth="yes"/>
      <point x="114" y="617"/>
      <point x="84" y="644"/>
      <point x="34" y="674" type="curve"/>
      <point x="34" y="739" type="line"/>
      <point x="110" y="712"/>
      <point x="162" y="671"/>
      <point x="216" y="595" type="curve"/>
      <point x="280" y="507"/>
      <point x="312" y="409"/>
      <point x="312" y="305" type="curve" smooth="yes"/>
      <point x="312" y="179"/>
      <point x="258" y="49"/>
      <point x="168" y="-42" type="curve" smooth="yes"/>
      <point x="127" y="-83"/>
      <point x="92" y="-105"/>
    </contour>
  </outline>
</glyph>
<glyph name="Q" format="1">
  <advance width="871"/>
  <unicode hex="0051"/>
  <outline>
    <contour>
      <point x="827" y="56" type="curve"/>
      <point x="827" y="-13" type="line"/>
      <point x="758" y="-12"/>
      <point x="716" y="4"/>
      <point x="665" y="51" type="curve"/>
      <point x="603" y="9"/>
      <point x="524" y="-13"/>
      <point x="443" y="-13" type="curve" smooth="yes"/>
      <point x="221" y="-13"/>
      <point x="44" y="157"/>
      <point x="44" y="369" type="curve" smooth="yes"/>
      <point x="44" y="588"/>
      <point x="216" y="752"/>
      <point x="444" y="752" type="curve" smooth="yes"/>
      <point x="670" y="752"/>
      <point x="839" y="590"/>
      <point x="839" y="371" type="curve" smooth="yes"/>
      <point x="839" y="258"/>
      <point x="796" y="161"/>
      <point x="716" y="93" type="curve"/>
      <point x="754" y="66"/>
      <point x="781" y="55"/>
      <point x="812" y="55" type="curve" smooth="yes"/>
      <point x="815" y="55"/>
      <point x="821" y="55"/>
    </contour>
    <contour>
      <point x="161" y="216" type="curve"/>
      <point x="180" y="181"/>
      <point x="207" y="150"/>
      <point x="247" y="120" type="curve" smooth="yes"/>
      <point x="302" y="78"/>
      <point x="371" y="55"/>
      <point x="443" y="55" type="curve" smooth="yes"/>
      <point x="505" y="55"/>
      <point x="555" y="69"/>
      <point x="605" y="100" type="curve"/>
      <point x="498" y="197"/>
      <point x="403" y="237"/>
      <point x="277" y="237" type="curve" smooth="yes"/>
      <point x="231" y="237"/>
      <point x="201" y="232"/>
    </contour>
    <contour>
      <point x="130" y="279" type="curve"/>
      <point x="187" y="298"/>
      <point x="231" y="305"/>
      <point x="288" y="305" type="curve" smooth="yes"/>
      <point x="393" y="305"/>
      <point x="486" y="276"/>
      <point x="569" y="217" type="curve" smooth="yes"/>
      <point x="599" y="195"/>
      <point x="628" y="173"/>
      <point x="663" y="142" type="curve"/>
      <point x="731" y="207"/>
      <point x="764" y="284"/>
      <point x="764" y="371" type="curve" smooth="yes"/>
      <point x="764" y="548"/>
      <point x="624" y="684"/>
      <point x="442" y="684" type="curve" smooth="yes"/>
      <point x="259" y="684"/>
      <point x="119" y="545"/>
      <point x="119" y="363" type="curve" smooth="yes"/>
      <point x="119" y="336"/>
      <point x="122" y="315"/>
    </contour>
  </outline>
</glyph>
<glyph name="bracketright" format="1">
  <advance width="351"/>
  <unicode hex="005D"/>
  <outline>
    <contour>
      <point x="38" y="664" type="curve"/>
      <point x="38" y="739" type="line"/>
      <point x="93" y="723"/>
      <point x="135" y="698"/>
      <point x="173" y="657" type="curve" smooth="yes"/>
      <point x="220" y="605"/>
      <point x="239" y="547"/>
      <point x="239" y="450" type="curve" smooth="yes"/>
      <point x="239" y="153" type="line" smooth="yes"/>
      <point x="239" y="65"/>
      <point x="216" y="2"/>
      <point x="166" y="-50" type="curve" smooth="yes"/>
      <point x="128" y="-89"/>
      <point x="90" y="-111"/>
      <point x="38" y="-125" type="curve"/>
      <point x="38" y="-50" type="line"/>
      <point x="136" y="-6"/>
      <point x="169" y="48"/>
      <point x="169" y="166" type="curve" smooth="yes"/>
      <point x="169" y="438" type="line" smooth="yes"/>
      <point x="169" y="565"/>
      <point x="137" y="620"/>
    </contour>
  </outline>
</glyph>
<glyph name="b" format="1">
  <advance width="682"/>
  <unicode hex="0062"/>
  <outline>
    <contour>
      <point x="63" y="0" type="line"/>
      <point x="63" y="739" type="line"/>
      <point x="137" y="739" type="line"/>
      <point x="137" y="453" type="line"/>
      <point x="184" y="522"/>
      <point x="260" y="560"/>
      <point x="352" y="560" type="curve" smooth="yes"/>
      <point x="514" y="560"/>
      <point x="640" y="435"/>
      <point x="640" y="274" type="curve" smooth="yes"/>
      <point x="640" y="110"/>
      <point x="516" y="-13"/>
      <point x="351" y="-13" type="curve" smooth="yes"/>
      <point x="261" y="-13"/>
      <point x="183" y="26"/>
      <point x="137" y="94" type="curve"/>
      <point x="137" y="0" type="line"/>
    </contour>
    <contour>
      <point x="350" y="492" type="curve" smooth="yes"/>
      <point x="228" y="492"/>
      <point x="132" y="397"/>
      <point x="132" y="276" type="curve" smooth="yes"/>
      <point x="132" y="214"/>
      <point x="152" y="164"/>
      <point x="195" y="120" type="curve" smooth="yes"/>
      <point x="238" y="76"/>
      <point x="288" y="55"/>
      <point x="349" y="55" type="curve" smooth="yes"/>
      <point x="472" y="55"/>
      <point x="565" y="150"/>
      <point x="565" y="276" type="curve" smooth="yes"/>
      <point x="565" y="399"/>
      <point x="473" y="492"/>
    </contour>
  </outline>
</glyph>
<glyph name="g" format="1">
  <advance width="673"/>
  <unicode hex="0067"/>
  <outline>
    <contour>
      <point x="610" y="547" type="line"/>
      <point x="610" y="98" type="line" smooth="yes"/>
      <point x="610" y="-9"/>
      <point x="596" y="-67"/>
      <point x="559" y="-117" type="curve" smooth="yes"/>
      <point x="512" y="-179"/>
      <point x="432" y="-215"/>
      <point x="337" y="-215" type="curve" smooth="yes"/>
      <point x="199" y="-215"/>
      <point x="102" y="-145"/>
      <point x="62" y="-17" type="curve"/>
      <point x="134" y="-17" type="line"/>
      <point x="158" y="-59"/>
      <point x="169" y="-75"/>
      <point x="188" y="-92" type="curve" smooth="yes"/>
      <point x="227" y="-129"/>
      <point x="274" y="-147"/>
      <point x="335" y="-147" type="curve" smooth="yes"/>
      <point x="419" y="-147"/>
      <point x="485" y="-111"/>
      <point x="514" y="-48" type="curve" smooth="yes"/>
      <point x="530" y="-14"/>
      <point x="536" y="20"/>
      <point x="536" y="74" type="curve" smooth="yes"/>
      <point x="536" y="111" type="line"/>
      <point x="493" y="27"/>
      <point x="425" y="-13"/>
      <point x="327" y="-13" type="curve" smooth="yes"/>
      <point x="167" y="-13"/>
      <point x="42" y="111"/>
      <point x="42" y="271" type="curve" smooth="yes"/>
      <point x="42" y="436"/>
      <point x="162" y="560"/>
      <point x="322" y="560" type="curve" smooth="yes"/>
      <point x="414" y="560"/>
      <point x="481" y="525"/>
      <point x="536" y="450" type="curve"/>
      <point x="536" y="547" type="line"/>
    </contour>
    <contour>
      <point x="326" y="492" type="curve" smooth="yes"/>
      <point x="205" y="492"/>
      <point x="117" y="402"/>
      <point x="117" y="277" type="curve" smooth="yes"/>
      <point x="117" y="150"/>
      <point x="207" y="55"/>
      <point x="327" y="55" type="curve" smooth="yes"/>
      <point x="446" y="55"/>
      <point x="536" y="152"/>
      <point x="536" y="280" type="curve" smooth="yes"/>
      <point x="536" y="399"/>
      <point x="444" y="492"/>
    </contour>
  </outline>
</glyph>
<glyph name="j" format="1">
  <advance width="203"/>
  <unicode hex="006A"/>
  <outline>
    <contour>
      <point x="140" y="547" type="line"/>
      <point x="140" y="38" type="line" smooth="yes"/>
      <point x="140" y="-69"/>
      <point x="123" y="-115"/>
      <point x="70" y="-155" type="curve" smooth="yes"/>
      <point x="37" y="-179"/>
      <point x="3" y="-190"/>
      <point x="-45" y="-192" type="curve"/>
      <point x="-45" y="-121" type="line"/>
      <point x="38" y="-116"/>
      <point x="66" y="-76"/>
      <point x="66" y="38" type="curve" smooth="yes"/>
      <point x="66" y="547" type="line"/>
    </contour>
    <contour>
      <point x="66" y="613" type="line"/>
      <point x="66" y="739" type="line"/>
      <point x="140" y="739" type="line"/>
      <point x="140" y="613" type="line"/>
    </contour>
  </outline>
</glyph>
<glyph name="p" format="1">
  <advance width="682"/>
  <unicode hex="0070"/>
  <outline>
    <contour>
      <point x="63" y="547" type="line"/>
      <point x="137" y="547" type="line"/>
      <point x="137" y="453" type="line"/>
      <point x="183" y="522"/>
      <point x="259" y="560"/>
      <point x="352" y="560" type="curve" smooth="yes"/>
      <point x="515" y="560"/>
      <point x="640" y="435"/>
      <point x="640" y="272" type="curve" smooth="yes"/>
      <point x="640" y="112"/>
      <point x="513" y="-13"/>
      <point x="350" y="-13" type="curve" smooth="yes"/>
      <point x="259" y="-13"/>
      <point x="185" y="24"/>
      <point x="137" y="94" type="curve"/>
      <point x="137" y="-192" type="line"/>
      <point x="63" y="-192" type="line"/>
    </contour>
    <contour>
      <point x="349" y="492" type="curve" smooth="yes"/>
      <point x="228" y="492"/>
      <point x="132" y="397"/>
      <point x="132" y="276" type="curve" smooth="yes"/>
      <point x="132" y="150"/>
      <point x="225" y="55"/>
      <point x="350" y="55" type="curve" smooth="yes"/>
      <point x="472" y="55"/>
      <point x="565" y="149"/>
      <point x="565" y="272" type="curve" smooth="yes"/>
      <point x="565" y="398"/>
      <point x="472" y="492"/>
    </contour>
  </outline>
</glyph>
<glyph name="registered" format="1">
  <advance width="747"/>
  <unicode hex="00AE"/>
  <outline>
    <contour>
      <point x="530" y="157" type="line"/>
      <point x="454" y="157" type="line"/>
      <point x="309" y="359" type="line"/>
      <point x="309" y="157" type="line"/>
      <point x="248" y="157" type="line"/>
      <point x="248" y="585" type="line"/>
      <point x="380" y="585" type="line" smooth="yes"/>
      <point x="433" y="585"/>
      <point x="469" y="574"/>
      <point x="495" y="549" type="curve" smooth="yes"/>
      <point x="519" y="525"/>
      <point x="534" y="487"/>
      <point x="534" y="448" type="curve" smooth="yes"/>
      <point x="534" y="402"/>
      <point x="514" y="362"/>
      <point x="480" y="340" type="curve" smooth="yes"/>
      <point x="461" y="327"/>
      <point x="444" y="322"/>
      <point x="409" y="317" type="curve"/>
    </contour>
    <contour>
      <point x="309" y="365" type="line"/>
      <point x="353" y="365" type="line" smooth="yes"/>
      <point x="430" y="365"/>
      <point x="471" y="394"/>
      <point x="471" y="448" type="curve" smooth="yes"/>
      <point x="471" y="496"/>
      <point x="433" y="527"/>
      <point x="376" y="527" type="curve" smooth="yes"/>
      <point x="309" y="527" type="line"/>
    </contour>
    <contour>
      <point x="372" y="752" type="curve" smooth="yes"/>
      <point x="587" y="752"/>
      <point x="755" y="582"/>
      <point x="755" y="365" type="curve" smooth="yes"/>
      <point x="755" y="159"/>
      <point x="582" y="-13"/>
      <point x="373" y="-13" type="curve" smooth="yes"/>
      <point x="162" y="-13"/>
      <point x="-9" y="158"/>
      <point x="-9" y="370" type="curve" smooth="yes"/>
      <point x="-9" y="580"/>
      <point x="162" y="752"/>
    </contour>
    <contour>
      <point x="372" y="700" type="curve" smooth="yes"/>
      <point x="193" y="700"/>
      <point x="47" y="552"/>
      <point x="47" y="370" type="curve" smooth="yes"/>
      <point x="47" y="187"/>
      <point x="193" y="39"/>
      <point x="373" y="39" type="curve" smooth="yes"/>
      <point x="551" y="39"/>
      <point x="699" y="187"/>
      <point x="699" y="365" type="curve" smooth="yes"/>
      <point x="699" y="553"/>
      <point x="555" y="700"/>
    </contour>
  </outline>
</glyph>
<glyph name="threesuperior" format="1">
  <advance width="332"/>
  <unicode hex="00B3"/>
  <outline>
    <contour>
      <point x="104" y="615" type="curve"/>
      <point x="43" y="615" type="line"/>
      <point x="44" y="695"/>
      <point x="93" y="747"/>
      <point x="167" y="747" type="curve" smooth="yes"/>
      <point x="236" y="747"/>
      <point x="290" y="695"/>
      <point x="290" y="628" type="curve" smooth="yes"/>
      <point x="290" y="594"/>
      <point x="280" y="574"/>
      <point x="249" y="546" type="curve"/>
      <point x="296" y="517"/>
      <point x="319" y="476"/>
      <point x="319" y="427" type="curve" smooth="yes"/>
      <point x="319" y="347"/>
      <point x="249" y="280"/>
      <point x="166" y="280" type="curve" smooth="yes"/>
      <point x="112" y="280"/>
      <point x="62" y="308"/>
      <point x="35" y="352" type="curve" smooth="yes"/>
      <point x="20" y="376"/>
      <point x="15" y="398"/>
      <point x="13" y="439" type="curve"/>
      <point x="74" y="439" type="line"/>
      <point x="76" y="402"/>
      <point x="79" y="391"/>
      <point x="91" y="374" type="curve" smooth="yes"/>
      <point x="109" y="350"/>
      <point x="137" y="335"/>
      <point x="165" y="335" type="curve" smooth="yes"/>
      <point x="215" y="335"/>
      <point x="258" y="377"/>
      <point x="258" y="425" type="curve" smooth="yes"/>
      <point x="258" y="466"/>
      <point x="228" y="504"/>
      <point x="187" y="513" type="curve" smooth="yes"/>
      <point x="175" y="516"/>
      <point x="161" y="517"/>
      <point x="128" y="517" type="curve"/>
      <point x="128" y="571" type="line"/>
      <point x="146" y="570"/>
      <point x="146" y="570"/>
      <point x="149" y="570" type="curve" smooth="yes"/>
      <point x="198" y="570"/>
      <point x="229" y="594"/>
      <point x="229" y="631" type="curve" smooth="yes"/>
      <point x="229" y="666"/>
      <point x="202" y="692"/>
      <point x="166" y="692" type="curve" smooth="yes"/>
      <point x="141" y="692"/>
      <point x="120" y="678"/>
      <point x="110" y="655" type="curve" smooth="yes"/>
      <point x="105" y="643"/>
      <point x="104" y="639"/>
    </contour>
  </outline>
</glyph>
<glyph name="ntilde" format="1">
  <advance width="610"/>
  <unicode hex="00F1"/>
  <outline>
    <contour>
      <point x="63" y="0" type="line"/>
      <point x="63" y="547" type="line"/>
      <point x="137" y="547" type="line"/>
      <point x="137" y="476" type="line"/>
      <point x="183" y="532"/>
      <point x="241" y="560"/>
      <point x="313" y="560" type="curve" smooth="yes"/>
      <point x="390" y="560"/>
      <point x="456" y="529"/>
      <point x="499" y="475" type="curve"/>
      <point x="534" y="428"/>
      <point x="547" y="379"/>
      <point x="547" y="287" type="curve" smooth="yes"/>
      <point x="547" y="0" type="line"/>
      <point x="473" y="0" type="line"/>
      <point x="473" y="287" type="line" smooth="yes"/>
      <point x="473" y="359"/>
      <point x="463" y="399"/>
      <point x="437" y="433" type="curve"/>
      <point x="407" y="470"/>
      <point x="358" y="492"/>
      <point x="304" y="492" type="curve" smooth="yes"/>
      <point x="246" y="492"/>
      <point x="195" y="467"/>
      <point x="166" y="425" type="curve" smooth="yes"/>
      <point x="145" y="394"/>
      <point x="137" y="362"/>
      <point x="137" y="301" type="curve" smooth="yes"/>
      <point x="137" y="0" type="line"/>
    </contour>
    <contour>
      <point x="410" y="728" type="curve"/>
      <point x="443" y="682" type="line"/>
      <point x="427" y="656"/>
      <point x="385" y="633"/>
      <point x="352" y="633" type="curve" smooth="yes"/>
      <point x="338" y="633"/>
      <point x="319" y="639"/>
      <point x="286" y="655" type="curve"/>
      <point x="271" y="661"/>
      <point x="257" y="665"/>
      <point x="246" y="665" type="curve" smooth="yes"/>
      <point x="227" y="665"/>
      <point x="219" y="661"/>
      <point x="193" y="639" type="curve" smooth="yes"/>
      <point x="186" y="633" type="line"/>
      <point x="153" y="679" type="line"/>
      <point x="176" y="709"/>
      <point x="211" y="728"/>
      <point x="246" y="728" type="curve" smooth="yes"/>
      <point x="264" y="728"/>
      <point x="275" y="725"/>
      <point x="305" y="711" type="curve" smooth="yes"/>
      <point x="321" y="704"/>
      <point x="344" y="697"/>
      <point x="353" y="697" type="curve" smooth="yes"/>
      <point x="372" y="697"/>
      <point x="390" y="707"/>
    </contour>
  </outline>
</glyph>
<glyph name="aogonek" format="1">
  <advance width="683"/>
  <unicode hex="0105"/>
  <outline>
    <contour>
      <point x="620" y="547" type="line"/>
      <point x="620" y="0" type="line"/>
      <point x="605" y="-11"/>
      <point x="594" y="-20"/>
      <point x="579" y="-37" type="curve" smooth="yes"/>
      <point x="555" y="-63"/>
      <point x="547" y="-78"/>
      <point x="547" y="-97" type="curve" smooth="yes"/>
      <point x="547" y="-126"/>
      <point x="572" y="-146"/>
      <point x="606" y="-146" type="curve" smooth="yes"/>
      <point x="622" y="-146"/>
      <point x="636" y="-143"/>
      <point x="651" y="-136" type="curve"/>
      <point x="651" y="-182" type="line"/>
      <point x="632" y="-188"/>
      <point x="616" y="-191"/>
      <point x="600" y="-191" type="curve" smooth="yes"/>
      <point x="540" y="-191"/>
      <point x="497" y="-153"/>
      <point x="497" y="-101" type="curve" smooth="yes"/>
      <point x="497" y="-60"/>
      <point x="517" y="-31"/>
      <point x="568" y="0" type="curve"/>
      <point x="546" y="0" type="line"/>
      <point x="546" y="96" type="line"/>
      <point x="488" y="18"/>
      <point x="428" y="-13"/>
      <point x="335" y="-13" type="curve" smooth="yes"/>
      <point x="167" y="-13"/>
      <point x="42" y="109"/>
      <point x="42" y="272" type="curve" smooth="yes"/>
      <point x="42" y="436"/>
      <point x="166" y="560"/>
      <point x="330" y="560" type="curve" smooth="yes"/>
      <point x="425" y="560"/>
      <point x="492" y="526"/>
      <point x="546" y="450" type="curve"/>
      <point x="546" y="547" type="line"/>
    </contour>
    <contour>
      <point x="332" y="492" type="curve" smooth="yes"/>
      <point x="213" y="492"/>
      <point x="117" y="396"/>
      <point x="117" y="277" type="curve" smooth="yes"/>
      <point x="117" y="152"/>
      <point x="212" y="55"/>
      <point x="336" y="55" type="curve" smooth="yes"/>
      <point x="454" y="55"/>
      <point x="546" y="152"/>
      <point x="546" y="276" type="curve" smooth="yes"/>
      <point x="546" y="398"/>
      <point x="452" y="492"/>
    </contour>
  </outline>
</glyph>
<glyph name="ccaron" format="1">
  <advance width="647"/>
  <unicode hex="010D"/>
  <outline>
    <contour>
      <point x="524" y="161" type="curve"/>
      <point x="608" y="161" type="line"/>
      <point x="578" y="104"/>
      <point x="557" y="77"/>
      <point x="522" y="49" type="curve" smooth="yes"/>
      <point x="471" y="9"/>
      <point x="408" y="-13"/>
      <point x="340" y="-13" type="curve" smooth="yes"/>
      <point x="172" y="-13"/>
      <point x="42" y="112"/>
      <point x="42" y="275" type="curve" smooth="yes"/>
      <point x="42" y="434"/>
      <point x="171" y="560"/>
      <point x="335" y="560" type="curve" smooth="yes"/>
      <point x="458" y="560"/>
      <point x="563" y="491"/>
      <point x="607" y="381" type="curve"/>
      <point x="524" y="381" type="line"/>
      <point x="482" y="453"/>
      <point x="415" y="492"/>
      <point x="334" y="492" type="curve" smooth="yes"/>
      <point x="212" y="492"/>
      <point x="117" y="396"/>
      <point x="117" y="273" type="curve" smooth="yes"/>
      <point x="117" y="152"/>
      <point x="214" y="55"/>
      <point x="337" y="55" type="curve" smooth="yes"/>
      <point x="414" y="55"/>
      <point x="467" y="85"/>
    </contour>
    <contour>
      <point x="511" y="749" type="line"/>
      <point x="366" y="623" type="line"/>
      <point x="300" y="623" type="line"/>
      <point x="157" y="749" type="line"/>
      <point x="246" y="749" type="line"/>
      <point x="332" y="675" type="line"/>
      <point x="420" y="749" type="line"/>
    </contour>
  </outline>
</glyph>
<glyph name="Ebreve" format="1">
  <advance width="536"/>
  <unicode hex="0114"/>
  <outline>
    <contour>
      <point x="126" y="959" type="curve"/>
      <point x="190" y="959" type="line"/>
      <point x="194" y="934"/>
      <point x="201" y="923"/>
      <point x="216" y="913" type="curve"/>
      <point x="234" y="903"/>
      <point x="256" y="897"/>
      <point x="278" y="897" type="curve" smooth="yes"/>
      <point x="300" y="897"/>
      <point x="322" y="903"/>
      <point x="340" y="913" type="curve"/>
      <point x="355" y="923"/>
      <point x="362" y="934"/>
      <point x="366" y="959" type="curve"/>
      <point x="430" y="959" type="line"/>
      <point x="421" y="910"/>
      <point x="409" y="888"/>
      <point x="381" y="868" type="curve" smooth="yes"/>
      <point x="355" y="849"/>
      <point x="320" y="839"/>
      <point x="278" y="839" type="curve" smooth="yes"/>
      <point x="189" y="839"/>
      <point x="141" y="877"/>
    </contour>
    <contour>
      <point x="76" y="0" type="line"/>
      <point x="76" y="739" type="line"/>
      <point x="480" y="739" type="line"/>
      <point x="480" y="672" type="line"/>
      <point x="150" y="672" type="line"/>
      <point x="150" y="407" type="line"/>
      <point x="469" y="407" type="line"/>
      <point x="469" y="340" type="line"/>
      <point x="150" y="340" type="line"/>
      <point x="150" y="67" type="line"/>
      <point x="480" y="67" type="line"/>
      <point x="480" y="0" type="line"/>
    </contour>
  </outline>
</glyph>
<glyph name="hbar" format="1">
  <advance width="610"/>
  <unicode hex="0127"/>
  <outline>
    <contour>
      <point x="136" y="615" type="line"/>
      <point x="136" y="476" type="line"/>
      <point x="173" y="530"/>
      <point x="235" y="560"/>
      <point x="310" y="560" type="curve" smooth="yes"/>
      <point x="389" y="560"/>
      <point x="458" y="529"/>
      <point x="499" y="475" type="curve" smooth="yes"/>
      <point x="531" y="432"/>
      <point x="546" y="376"/>
      <point x="546" y="294" type="curve" smooth="yes"/>
      <point x="546" y="0" type="line"/>
      <point x="472" y="0" type="line"/>
      <point x="472" y="294" type="line" smooth="yes"/>
      <point x="472" y="358"/>
      <point x="461" y="400"/>
      <point x="435" y="432" type="curve" smooth="yes"/>
      <point x="406" y="469"/>
      <point x="356" y="492"/>
      <point x="303" y="492" type="curve" smooth="yes"/>
      <point x="247" y="492"/>
      <point x="196" y="467"/>
      <point x="166" y="424" type="curve" smooth="yes"/>
      <point x="144" y="394"/>
      <point x="136" y="359"/>
      <point x="136" y="300" type="curve" smooth="yes"/>
      <point x="136" y="0" type="line"/>
      <point x="62" y="0" type="line"/>
      <point x="62" y="615" type="line"/>
      <point x="9" y="615" type="line"/>
      <point x="9" y="679" type="line"/>
      <point x="63" y="679" type="line"/>
      <point x="63" y="739" type="line"/>
      <point x="137" y="739" type="line"/>
      <point x="137" y="679" type="line"/>
      <point x="236" y="679" type="line"/>
      <point x="236" y="615" type="line"/>
    </contour>
  </outline>
</glyph>
<glyph name="Itilde" format="1">
  <advance width="226"/>
  <unicode hex="0128"/>
  <outline>
    <contour>
      <point x="225" y="934" type="curve"/>
      <point x="258" y="888" type="line"/>
      <point x="242" y="862"/>
      <point x="200" y="839"/>
      <point x="167" y="839" type="curve" smooth="yes"/>
      <point x="153" y="839"/>
      <point x="134" y="845"/>
      <point x="101" y="861" type="curve"/>
      <point x="86" y="867"/>
      <point x="72" y="871"/>
      <point x="61" y="871" type="curve" smooth="yes"/>
      <point x="42" y="871"/>
      <point x="34" y="867"/>
      <point x="8" y="845" type="curve" smooth="yes"/>
      <point x="1" y="839" type="line"/>
      <point x="-32" y="885" type="line"/>
      <point x="-9" y="915"/>
      <point x="26" y="934"/>
      <point x="61" y="934" type="curve" smooth="yes"/>
      <point x="79" y="934"/>
      <point x="90" y="931"/>
      <point x="120" y="917" type="curve" smooth="yes"/>
      <point x="136" y="910"/>
      <point x="159" y="903"/>
      <point x="168" y="903" type="curve" smooth="yes"/>
      <point x="187" y="903"/>
      <point x="205" y="913"/>
    </contour>
    <contour>
      <point x="76" y="0" type="line"/>
      <point x="76" y="739" type="line"/>
      <point x="150" y="739" type="line"/>
      <point x="150" y="0" type="line"/>
    </contour>
  </outline>
</glyph>
<glyph name="itilde" format="1">
  <advance width="200"/>
  <unicode hex="0129"/>
  <outline>
    <contour>
      <point x="212" y="742" type="curve"/>
      <point x="245" y="696" type="line"/>
      <point x="229" y="670"/>
      <point x="187" y="647"/>
      <point x="154" y="647" type="curve" smooth="yes"/>
      <point x="140" y="647"/>
      <point x="121" y="653"/>
      <point x="88" y="669" type="curve"/>
      <point x="73" y="675"/>
      <point x="59" y="679"/>
      <point x="48" y="679" type="curve" smooth="yes"/>
      <point x="29" y="679"/>
      <point x="21" y="675"/>
      <point x="-5" y="653" type="curve" smooth="yes"/>
      <point x="-12" y="647" type="line"/>
      <point x="-45" y="693" type="line"/>
      <point x="-22" y="723"/>
      <point x="13" y="742"/>
      <point x="48" y="742" type="curve" smooth="yes"/>
      <point x="66" y="742"/>
      <point x="77" y="739"/>
      <point x="107" y="725" type="curve" smooth="yes"/>
      <point x="123" y="718"/>
      <point x="146" y="711"/>
      <point x="155" y="711" type="curve" smooth="yes"/>
      <point x="174" y="711"/>
      <point x="192" y="721"/>
    </contour>
    <contour>
      <point x="63" y="0" type="line"/>
      <point x="63" y="547" type="line"/>
      <point x="137" y="547" type="line"/>
      <point x="137" y="0" type="line"/>
    </contour>
  </outline>
</glyph>
<glyph name="imacron" format="1">
  <advance width="200"/>
  <unicode hex="012B"/>
  <outline>
    <contour>
      <point x="63" y="0" type="line"/>
      <point x="63" y="547" type="line"/>
      <point x="137" y="547" type="line"/>
      <point x="137" y="0" type="line"/>
    </contour>
    <contour>
      <point x="-69" y="707" type="line"/>
      <point x="268" y="707" type="line"/>
      <point x="268" y="643" type="line"/>
      <point x="-69" y="643" type="line"/>
    </contour>
  </outline>
</glyph>
<glyph name="Ibreve" format="1">
  <advance width="226"/>
  <unicode hex="012C"/>
  <outline>
    <contour>
      <point x="-39" y="959" type="curve"/>
      <point x="25" y="959" type="line"/>
      <point x="29" y="934"/>
      <point x="36" y="923"/>
      <point x="51" y="913" type="curve"/>
      <point x="69" y="903"/>
      <point x="91" y="897"/>
      <point x="113" y="897" type="curve" smooth="yes"/>
      <point x="135" y="897"/>
      <point x="157" y="903"/>
      <point x="175" y="913" type="curve"/>
      <point x="190" y="923"/>
      <point x="197" y="934"/>
      <point x="201" y="959" type="curve"/>
      <point x="265" y="959" type="line"/>
      <point x="256" y="910"/>
      <point x="244" y="888"/>
      <point x="216" y="868" type="curve" smooth="yes"/>
      <point x="190" y="849"/>
      <point x="155" y="839"/>
      <point x="113" y="839" type="curve" smooth="yes"/>
      <point x="24" y="839"/>
      <point x="-24" y="877"/>
    </contour>
    <contour>
      <point x="76" y="0" type="line"/>
      <point x="76" y="739" type="line"/>
      <point x="150" y="739" type="line"/>
      <point x="150" y="0" type="line"/>
    </contour>
  </outline>
</glyph>
<glyph name="ibreve" format="1">
  <advance width="200"/>
  <unicode hex="012D"/>
  <outline>
    <contour>
      <point x="-52" y="767" type="curve"/>
      <point x="12" y="767" type="line"/>
      <point x="16" y="742"/>
      <point x="23" y="731"/>
      <point x="38" y="721" type="curve"/>
      <point x="56" y="711"/>
      <point x="78" y="705"/>
      <point x="100" y="705" type="curve" smooth="yes"/>
      <point x="122" y="705"/>
      <point x="144" y="711"/>
      <point x="162" y="721" type="curve"/>
      <point x="177" y="731"/>
      <point x="184" y="742"/>
      <point x="188" y="767" type="curve"/>
      <point x="252" y="767" type="line"/>
      <point x="243" y="718"/>
      <point x="231" y="696"/>
      <point x="203" y="676" type="curve" smooth="yes"/>
      <point x="177" y="657"/>
      <point x="142" y="647"/>
      <point x="100" y="647" type="curve" smooth="yes"/>
      <point x="11" y="647"/>
      <point x="-37" y="685"/>
    </contour>
    <contour>
      <point x="63" y="0" type="line"/>
      <point x="63" y="547" type="line"/>
      <point x="137" y="547" type="line"/>
      <point x="137" y="0" type="line"/>
    </contour>
  </outline>
</glyph>
<glyph name="Iogonek" format="1">
  <advance width="226"/>
  <unicode hex="012E"/>
  <outline>
    <contour>
      <point x="150" y="739" type="line"/>
      <point x="150" y="0" type="line"/>
      <point x="135" y="-11"/>
      <point x="124" y="-20"/>
      <point x="109" y="-37" type="curve" smooth="yes"/>
      <point x="85" y="-63"/>
      <point x="77" y="-78"/>
      <point x="77" y="-97" type="curve" smooth="yes"/>
      <point x="77" y="-126"/>
      <point x="102" y="-146"/>
      <point x="136" y="-146" type="curve" smooth="yes"/>
      <point x="152" y="-146"/>
      <point x="166" y="-143"/>
      <point x="181" y="-136" type="curve"/>
      <point x="181" y="-182" type="line"/>
      <point x="162" y="-188"/>
      <point x="146" y="-191"/>
      <point x="130" y="-191" type="curve" smooth="yes"/>
      <point x="70" y="-191"/>
      <point x="27" y="-153"/>
      <point x="27" y="-101" type="curve" smooth="yes"/>
      <point x="27" y="-60"/>
      <point x="47" y="-31"/>
      <point x="98" y="0" type="curve"/>
      <point x="76" y="0" type="line"/>
      <point x="76" y="739" type="line"/>
    </contour>
  </outline>
</glyph>
<glyph name="IJ" format="1">
  <advance width="686"/>
  <unicode hex="0132"/>
  <outline>
    <contour>
      <point x="76" y="0" type="line"/>
      <point x="76" y="739" type="line"/>
      <point x="150" y="739" type="line"/>
      <point x="150" y="0" type="line"/>
    </contour>
    <contour>
      <point x="606" y="739" type="line"/>
      <point x="606" y="231" type="line" smooth="yes"/>
      <point x="606" y="177"/>
      <point x="594" y="114"/>
      <point x="577" y="82" type="curve"/>
      <point x="546" y="19"/>
      <point x="487" y="-14"/>
      <point x="409" y="-14" type="curve" smooth="yes"/>
      <point x="291" y="-14"/>
      <point x="217" y="57"/>
      <point x="211" y="175" type="curve"/>
      <point x="284" y="175" type="line"/>
      <point x="289" y="100"/>
      <point x="337" y="54"/>
      <point x="410" y="54" type="curve" smooth="yes"/>
      <point x="490" y="54"/>
      <point x="532" y="114"/>
      <point x="532" y="231" type="curve" smooth="yes"/>
      <point x="532" y="739" type="line"/>
    </contour>
  </outline>
</glyph>
<glyph name="ij" format="1">
  <advance width="330"/>
  <unicode hex="0133"/>
  <outline>
    <contour>
      <point x="63" y="0" type="line"/>
      <point x="63" y="547" type="line"/>
      <point x="137" y="547" type="line"/>
      <point x="137" y="0" type="line"/>
    </contour>
    <contour>
      <point x="63" y="613" type="line"/>
      <point x="63" y="739" type="line"/>
      <point x="137" y="739" type="line"/>
      <point x="137" y="613" type="line"/>
    </contour>
    <contour>
      <point x="266" y="547" type="line"/>
      <point x="266" y="38" type="line" smooth="yes"/>
      <point x="266" y="-69"/>
      <point x="249" y="-115"/>
      <point x="196" y="-155" type="curve" smooth="yes"/>
      <point x="163" y="-179"/>
      <point x="129" y="-190"/>
      <point x="81" y="-192" type="curve"/>
      <point x="81" y="-121" type="line"/>
      <point x="164" y="-116"/>
      <point x="192" y="-76"/>
      <point x="192" y="38" type="curve" smooth="yes"/>
      <point x="192" y="547" type="line"/>
    </contour>
    <contour>
      <point x="192" y="613" type="line"/>
      <point x="192" y="739" type="line"/>
      <point x="266" y="739" type="line"/>
      <point x="266" y="613" type="line"/>
    </contour>
  </outline>
</glyph>
<glyph name="Lcommaaccent" format="1">
  <advance width="462"/>
  <unicode hex="013B"/>
  <outline>
    <contour>
      <point x="76" y="0" type="line"/>
      <point x="76" y="739" type="line"/>
      <point x="150" y="739" type="line"/>
      <point x="150" y="67" type="line"/>
      <point x="456" y="67" type="line"/>
      <point x="456" y="0" type="line"/>
    </contour>
    <contour>
      <point x="157" y="-225" type="line"/>
      <point x="205" y="-53" type="line"/>
      <point x="279" y="-53" type="line"/>
      <point x="231" y="-225" type="line"/>
    </contour>
  </outline>
</glyph>
<glyph name="Ldot" format="1">
  <advance width="462"/>
  <unicode hex="013F"/>
  <outline>
    <contour>
      <point x="261" y="307" type="line"/>
      <point x="261" y="433" type="line"/>
      <point x="335" y="433" type="line"/>
      <point x="335" y="307" type="line"/>
    </contour>
    <contour>
      <point x="76" y="0" type="line"/>
      <point x="76" y="739" type="line"/>
      <point x="150" y="739" type="line"/>
      <point x="150" y="67" type="line"/>
      <point x="456" y="67" type="line"/>
      <point x="456" y="0" type="line"/>
    </contour>
  </outline>
</glyph>
<glyph name="nacute" format="1">
  <advance width="610"/>
  <unicode hex="0144"/>
  <outline>
    <contour>
      <point x="63" y="0" type="line"/>
      <point x="63" y="547" type="line"/>
      <point x="137" y="547" type="line"/>
      <point x="137" y="476" type="line"/>
      <point x="183" y="532"/>
      <point x="241" y="560"/>
      <point x="313" y="560" type="curve" smooth="yes"/>
      <point x="390" y="560"/>
      <point x="456" y="529"/>
      <point x="499" y="475" type="curve"/>
      <point x="534" y="428"/>
      <point x="547" y="379"/>
      <point x="547" y="287" type="curve" smooth="yes"/>
      <point x="547" y="0" type="line"/>
      <point x="473" y="0" type="line"/>
      <point x="473" y="287" type="line" smooth="yes"/>
      <point x="473" y="359"/>
      <point x="463" y="399"/>
      <point x="437" y="433" type="curve"/>
      <point x="407" y="470"/>
      <point x="358" y="492"/>
      <point x="304" y="492" type="curve" smooth="yes"/>
      <point x="246" y="492"/>
      <point x="195" y="467"/>
      <point x="166" y="425" type="curve" smooth="yes"/>
      <point x="145" y="394"/>
      <point x="137" y="362"/>
      <point x="137" y="301" type="curve" smooth="yes"/>
      <point x="137" y="0" type="line"/>
    </contour>
    <contour>
      <point x="192" y="666" type="line"/>
      <point x="385" y="782" type="line"/>
      <point x="419" y="724" type="line"/>
      <point x="226" y="610" type="line"/>
    </contour>
  </outline>
</glyph>
<glyph name="Ncommaaccent" format="1">
  <advance width="740"/>
  <unicode hex="0145"/>
  <outline>
    <contour>
      <point x="76" y="0" type="line"/>
      <point x="76" y="739" type="line"/>
      <point x="176" y="739" type="line"/>
      <point x="590" y="126" type="line"/>
      <point x="590" y="739" type="line"/>
      <point x="664" y="739" type="line"/>
      <point x="664" y="0" type="line"/>
      <point x="590" y="0" type="line"/>
      <point x="150" y="650" type="line"/>
      <point x="150" y="0" type="line"/>
    </contour>
    <contour>
      <point x="296" y="-225" type="line"/>
      <point x="344" y="-53" type="line"/>
      <point x="418" y="-53" type="line"/>
      <point x="370" y="-225" type="line"/>
    </contour>
  </outline>
</glyph>
<glyph name="Ncaron" format="1">
  <advance width="740"/>
  <unicode hex="0147"/>
  <outline>
    <contour>
      <point x="76" y="0" type="line"/>
      <point x="76" y="739" type="line"/>
      <point x="176" y="739" type="line"/>
      <point x="590" y="126" type="line"/>
      <point x="590" y="739" type="line"/>
      <point x="664" y="739" type="line"/>
      <point x="664" y="0" type="line"/>
      <point x="590" y="0" type="line"/>
      <point x="150" y="650" type="line"/>
      <point x="150" y="0" type="line"/>
    </contour>
    <contour>
      <point x="547" y="931" type="line"/>
      <point x="402" y="805" type="line"/>
      <point x="336" y="805" type="line"/>
      <point x="193" y="931" type="line"/>
      <point x="282" y="931" type="line"/>
      <point x="368" y="857" type="line"/>
      <point x="456" y="931" type="line"/>
    </contour>
  </outline>
</glyph>
<glyph name="Eng" format="1">
  <advance width="740"/>
  <unicode hex="014A"/>
  <outline>
    <contour>
      <point x="664" y="0" type="line" smooth="yes"/>
      <point x="664" y="-103"/>
      <point x="639" y="-200"/>
      <point x="469" y="-200" type="curve" smooth="yes"/>
      <point x="405" y="-200" type="line"/>
      <point x="405" y="-133" type="line"/>
      <point x="471" y="-133" type="line" smooth="yes"/>
      <point x="577" y="-133"/>
      <point x="590" y="-99"/>
      <point x="590" y="0" type="curve"/>
      <point x="150" y="650" type="line"/>
      <point x="150" y="0" type="line"/>
      <point x="76" y="0" type="line"/>
      <point x="76" y="739" type="line"/>
      <point x="176" y="739" type="line"/>
      <point x="590" y="126" type="line"/>
      <point x="590" y="739" type="line"/>
      <point x="664" y="739" type="line"/>
    </contour>
  </outline>
</glyph>
<glyph name="Obreve" format="1">
  <advance width="869"/>
  <unicode hex="014E"/>
  <outline>
    <contour>
      <point x="282" y="959" type="curve"/>
      <point x="346" y="959" type="line"/>
      <point x="350" y="934"/>
      <point x="357" y="923"/>
      <point x="372" y="913" type="curve"/>
      <point x="390" y="903"/>
      <point x="412" y="897"/>
      <point x="434" y="897" type="curve" smooth="yes"/>
      <point x="456" y="897"/>
      <point x="478" y="903"/>
      <point x="496" y="913" type="curve"/>
      <point x="511" y="923"/>
      <point x="518" y="934"/>
      <point x="522" y="959" type="curve"/>
      <point x="586" y="959" type="line"/>
      <point x="577" y="910"/>
      <point x="565" y="888"/>
      <point x="537" y="868" type="curve" smooth="yes"/>
      <point x="511" y="849"/>
      <point x="476" y="839"/>
      <point x="434" y="839" type="curve" smooth="yes"/>
      <point x="345" y="839"/>
      <point x="297" y="877"/>
    </contour>
    <contour>
      <point x="435" y="752" type="curve" smooth="yes"/>
      <point x="649" y="752"/>
      <point x="825" y="580"/>
      <point x="825" y="369" type="curve" smooth="yes"/>
      <point x="825" y="160"/>
      <point x="649" y="-13"/>
      <point x="435" y="-13" type="curve" smooth="yes"/>
      <point x="218" y="-13"/>
      <point x="44" y="159"/>
      <point x="44" y="374" type="curve" smooth="yes"/>
      <point x="44" y="579"/>
      <point x="223" y="752"/>
    </contour>
    <contour>
      <point x="435" y="684" type="curve" smooth="yes"/>
      <point x="264" y="684"/>
      <point x="119" y="541"/>
      <point x="119" y="372" type="curve" smooth="yes"/>
      <point x="119" y="197"/>
      <point x="261" y="55"/>
      <point x="435" y="55" type="curve" smooth="yes"/>
      <point x="607" y="55"/>
      <point x="750" y="197"/>
      <point x="750" y="368" type="curve" smooth="yes"/>
      <point x="750" y="541"/>
      <point x="607" y="684"/>
    </contour>
  </outline>
</glyph>
<glyph name="Tcommaaccent" format="1">
  <advance width="426"/>
  <unicode hex="0162"/>
  <outline>
    <contour>
      <point x="176" y="0" type="line"/>
      <point x="176" y="672" type="line"/>
      <point x="7" y="672" type="line"/>
      <point x="7" y="739" type="line"/>
      <point x="419" y="739" type="line"/>
      <point x="419" y="672" type="line"/>
      <point x="250" y="672" type="line"/>
      <point x="250" y="0" type="line"/>
    </contour>
    <contour>
      <point x="139" y="-225" type="line"/>
      <point x="187" y="-53" type="line"/>
      <point x="261" y="-53" type="line"/>
      <point x="213" y="-225" type="line"/>
    </contour>
  </outline>
</glyph>
<glyph name="tcaron" format="1">
  <advance width="339"/>
  <unicode hex="0165"/>
  <outline>
    <contour>
      <point x="130" y="0" type="line"/>
      <point x="130" y="480" type="line"/>
      <point x="12" y="480" type="line"/>
      <point x="12" y="547" type="line"/>
      <point x="130" y="547" type="line"/>
      <point x="130" y="739" type="line"/>
      <point x="204" y="739" type="line"/>
      <point x="204" y="547" type="line"/>
      <point x="327" y="547" type="line"/>
      <point x="327" y="480" type="line"/>
      <point x="204" y="480" type="line"/>
      <point x="204" y="0" type="line"/>
    </contour>
    <contour>
      <point x="260" y="567" type="line"/>
      <point x="305" y="739" type="line"/>
      <point x="379" y="739" type="line"/>
      <point x="334" y="567" type="line"/>
    </contour>
  </outline>
</glyph>
<glyph name="Utilde" format="1">
  <advance width="655"/>
  <unicode hex="0168"/>
  <outline>
    <contour>
      <point x="439" y="934" type="curve"/>
      <point x="472" y="888" type="line"/>
      <point x="456" y="862"/>
      <point x="414" y="839"/>
      <point x="381" y="839" type="curve" smooth="yes"/>
      <point x="367" y="839"/>
      <point x="348" y="845"/>
      <point x="315" y="861" type="curve"/>
      <point x="300" y="867"/>
      <point x="286" y="871"/>
      <point x="275" y="871" type="curve" smooth="yes"/>
      <point x="256" y="871"/>
      <point x="248" y="867"/>
      <point x="222" y="845" type="curve" smooth="yes"/>
      <point x="215" y="839" type="line"/>
      <point x="182" y="885" type="line"/>
      <point x="205" y="915"/>
      <point x="240" y="934"/>
      <point x="275" y="934" type="curve" smooth="yes"/>
      <point x="293" y="934"/>
      <point x="304" y="931"/>
      <point x="334" y="917" type="curve" smooth="yes"/>
      <point x="350" y="910"/>
      <point x="373" y="903"/>
      <point x="382" y="903" type="curve" smooth="yes"/>
      <point x="401" y="903"/>
      <point x="419" y="913"/>
    </contour>
    <contour>
      <point x="76" y="739" type="line"/>
      <point x="150" y="739" type="line"/>
      <point x="150" y="278" type="line" smooth="yes"/>
      <point x="150" y="211"/>
      <point x="161" y="160"/>
      <point x="184" y="125" type="curve" smooth="yes"/>
      <point x="212" y="82"/>
      <point x="267" y="55"/>
      <point x="328" y="55" type="curve" smooth="yes"/>
      <point x="388" y="55"/>
      <point x="443" y="82"/>
      <point x="471" y="125" type="curve" smooth="yes"/>
      <point x="494" y="160"/>
      <point x="505" y="211"/>
      <point x="505" y="278" type="curve" smooth="yes"/>
      <point x="505" y="739" type="line"/>
      <point x="579" y="739" type="line"/>
      <point x="579" y="278" type="line" smooth="yes"/>
      <point x="579" y="183"/>
      <point x="564" y="127"/>
      <point x="527" y="78" type="curve" smooth="yes"/>
      <point x="483" y="21"/>
      <point x="409" y="-13"/>
      <point x="327" y="-13" type="curve" smooth="yes"/>
      <point x="246" y="-13"/>
      <point x="172" y="21"/>
      <point x="128" y="78" type="curve" smooth="yes"/>
      <point x="91" y="127"/>
      <point x="76" y="183"/>
      <point x="76" y="278" type="curve" smooth="yes"/>
    </contour>
  </outline>
</glyph>
<glyph name="utilde" format="1">
  <advance width="608"/>
  <unicode hex="0169"/>
  <outline>
    <contour>
      <point x="416" y="742" type="curve"/>
      <point x="449" y="696" type="line"/>
      <point x="433" y="670"/>
      <point x="391" y="647"/>
      <point x="358" y="647" type="curve" smooth="yes"/>
      <point x="344" y="647"/>
      <point x="325" y="653"/>
      <point x="292" y="669" type="curve"/>
      <point x="277" y="675"/>
      <point x="263" y="679"/>
      <point x="252" y="679" type="curve" smooth="yes"/>
      <point x="233" y="679"/>
      <point x="225" y="675"/>
      <point x="199" y="653" type="curve" smooth="yes"/>
      <point x="192" y="647" type="line"/>
      <point x="159" y="693" type="line"/>
      <point x="182" y="723"/>
      <point x="217" y="742"/>
      <point x="252" y="742" type="curve" smooth="yes"/>
      <point x="270" y="742"/>
      <point x="281" y="739"/>
      <point x="311" y="725" type="curve" smooth="yes"/>
      <point x="327" y="718"/>
      <point x="350" y="711"/>
      <point x="359" y="711" type="curve" smooth="yes"/>
      <point x="378" y="711"/>
      <point x="396" y="721"/>
    </contour>
    <contour>
      <point x="545" y="547" type="line"/>
      <point x="545" y="0" type="line"/>
      <point x="471" y="0" type="line"/>
      <point x="471" y="85" type="line"/>
      <point x="434" y="17"/>
      <point x="380" y="-13"/>
      <point x="295" y="-13" type="curve" smooth="yes"/>
      <point x="213" y="-13"/>
      <point x="147" y="17"/>
      <point x="106" y="74" type="curve" smooth="yes"/>
      <point x="77" y="114"/>
      <point x="63" y="171"/>
      <point x="63" y="252" type="curve" smooth="yes"/>
      <point x="63" y="547" type="line"/>
      <point x="137" y="547" type="line"/>
      <point x="137" y="252" type="line" smooth="yes"/>
      <point x="137" y="196"/>
      <point x="146" y="152"/>
      <point x="163" y="124" type="curve" smooth="yes"/>
      <point x="188" y="80"/>
      <point x="240" y="55"/>
      <point x="301" y="55" type="curve" smooth="yes"/>
      <point x="358" y="55"/>
      <point x="407" y="80"/>
      <point x="438" y="123" type="curve"/>
      <point x="461" y="157"/>
      <point x="471" y="199"/>
      <point x="471" y="266" type="curve" smooth="yes"/>
      <point x="471" y="547" type="line"/>
    </contour>
  </outline>
</glyph>
<glyph name="Ubreve" format="1">
  <advance width="655"/>
  <unicode hex="016C"/>
  <outline>
    <contour>
      <point x="176" y="959" type="curve"/>
      <point x="240" y="959" type="line"/>
      <point x="244" y="934"/>
      <point x="251" y="923"/>
      <point x="266" y="913" type="curve"/>
      <point x="284" y="903"/>
      <point x="306" y="897"/>
      <point x="328" y="897" type="curve" smooth="yes"/>
      <point x="350" y="897"/>
      <point x="372" y="903"/>
      <point x="390" y="913" type="curve"/>
      <point x="405" y="923"/>
      <point x="412" y="934"/>
      <point x="416" y="959" type="curve"/>
      <point x="480" y="959" type="line"/>
      <point x="471" y="910"/>
      <point x="459" y="888"/>
      <point x="431" y="868" type="curve" smooth="yes"/>
      <point x="405" y="849"/>
      <point x="370" y="839"/>
      <point x="328" y="839" type="curve" smooth="yes"/>
      <point x="239" y="839"/>
      <point x="191" y="877"/>
    </contour>
    <contour>
      <point x="76" y="739" type="line"/>
      <point x="150" y="739" type="line"/>
      <point x="150" y="278" type="line" smooth="yes"/>
      <point x="150" y="211"/>
      <point x="161" y="160"/>
      <point x="184" y="125" type="curve" smooth="yes"/>
      <point x="212" y="82"/>
      <point x="267" y="55"/>
      <point x="328" y="55" type="curve" smooth="yes"/>
      <point x="388" y="55"/>
      <point x="443" y="82"/>
      <point x="471" y="125" type="curve" smooth="yes"/>
      <point x="494" y="160"/>
      <point x="505" y="211"/>
      <point x="505" y="278" type="curve" smooth="yes"/>
      <point x="505" y="739" type="line"/>
      <point x="579" y="739" type="line"/>
      <point x="579" y="278" type="line" smooth="yes"/>
      <point x="579" y="183"/>
      <point x="564" y="127"/>
      <point x="527" y="78" type="curve" smooth="yes"/>
      <point x="483" y="21"/>
      <point x="409" y="-13"/>
      <point x="327" y="-13" type="curve" smooth="yes"/>
      <point x="246" y="-13"/>
      <point x="172" y="21"/>
      <point x="128" y="78" type="curve" smooth="yes"/>
      <point x="91" y="127"/>
      <point x="76" y="183"/>
      <point x="76" y="278" type="curve" smooth="yes"/>
    </contour>
  </outline>
</glyph>
<glyph name="ubreve" format="1">
  <advance width="608"/>
  <unicode hex="016D"/>
  <outline>
    <contour>
      <point x="152" y="767" type="curve"/>
      <point x="216" y="767" type="line"/>
      <point x="220" y="742"/>
      <point x="227" y="731"/>
      <point x="242" y="721" type="curve"/>
      <point x="260" y="711"/>
      <point x="282" y="705"/>
      <point x="304" y="705" type="curve" smooth="yes"/>
      <point x="326" y="705"/>
      <point x="348" y="711"/>
      <point x="366" y="721" type="curve"/>
      <point x="381" y="731"/>
      <point x="388" y="742"/>
      <point x="392" y="767" type="curve"/>
      <point x="456" y="767" type="line"/>
      <point x="447" y="718"/>
      <point x="435" y="696"/>
      <point x="407" y="676" type="curve" smooth="yes"/>
      <point x="381" y="657"/>
      <point x="346" y="647"/>
      <point x="304" y="647" type="curve" smooth="yes"/>
      <point x="215" y="647"/>
      <point x="167" y="685"/>
    </contour>
    <contour>
      <point x="545" y="547" type="line"/>
      <point x="545" y="0" type="line"/>
      <point x="471" y="0" type="line"/>
      <point x="471" y="85" type="line"/>
      <point x="434" y="17"/>
      <point x="380" y="-13"/>
      <point x="295" y="-13" type="curve" smooth="yes"/>
      <point x="213" y="-13"/>
      <point x="147" y="17"/>
      <point x="106" y="74" type="curve" smooth="yes"/>
      <point x="77" y="114"/>
      <point x="63" y="171"/>
      <point x="63" y="252" type="curve" smooth="yes"/>
      <point x="63" y="547" type="line"/>
      <point x="137" y="547" type="line"/>
      <point x="137" y="252" type="line" smooth="yes"/>
      <point x="137" y="196"/>
      <point x="146" y="152"/>
      <point x="163" y="124" type="curve" smooth="yes"/>
      <point x="188" y="80"/>
      <point x="240" y="55"/>
      <point x="301" y="55" type="curve" smooth="yes"/>
      <point x="358" y="55"/>
      <point x="407" y="80"/>
      <point x="438" y="123" type="curve"/>
      <point x="461" y="157"/>
      <point x="471" y="199"/>
      <point x="471" y="266" type="curve" smooth="yes"/>
      <point x="471" y="547" type="line"/>
    </contour>
  </outline>
</glyph>
<glyph name="Uogonek" format="1">
  <advance width="655"/>
  <unicode hex="0172"/>
  <outline>
    <contour>
      <point x="579" y="739" type="line"/>
      <point x="579" y="278" type="line" smooth="yes"/>
      <point x="579" y="141"/>
      <point x="556" y="90"/>
      <point x="459" y="15" type="curve" smooth="yes"/>
      <point x="394" y="-34"/>
      <point x="367" y="-67"/>
      <point x="367" y="-97" type="curve" smooth="yes"/>
      <point x="367" y="-125"/>
      <point x="392" y="-146"/>
      <point x="426" y="-146" type="curve" smooth="yes"/>
      <point x="442" y="-146"/>
      <point x="456" y="-143"/>
      <point x="471" y="-136" type="curve"/>
      <point x="471" y="-182" type="line"/>
      <point x="452" y="-188"/>
      <point x="436" y="-191"/>
      <point x="421" y="-191" type="curve" smooth="yes"/>
      <point x="361" y="-191"/>
      <point x="317" y="-153"/>
      <point x="317" y="-101" type="curve" smooth="yes"/>
      <point x="317" y="-65"/>
      <point x="334" y="-38"/>
      <point x="374" y="-9" type="curve"/>
      <point x="355" y="-12"/>
      <point x="343" y="-13"/>
      <point x="327" y="-13" type="curve" smooth="yes"/>
      <point x="245" y="-13"/>
      <point x="172" y="21"/>
      <point x="128" y="78" type="curve" smooth="yes"/>
      <point x="91" y="127"/>
      <point x="76" y="183"/>
      <point x="76" y="278" type="curve" smooth="yes"/>
      <point x="76" y="739" type="line"/>
      <point x="150" y="739" type="line"/>
      <point x="150" y="278" type="line" smooth="yes"/>
      <point x="150" y="211"/>
      <point x="161" y="161"/>
      <point x="184" y="125" type="curve" smooth="yes"/>
      <point x="212" y="82"/>
      <point x="267" y="55"/>
      <point x="327" y="55" type="curve" smooth="yes"/>
      <point x="388" y="55"/>
      <point x="443" y="82"/>
      <point x="471" y="125" type="curve" smooth="yes"/>
      <point x="494" y="161"/>
      <point x="505" y="211"/>
      <point x="505" y="278" type="curve" smooth="yes"/>
      <point x="505" y="739" type="line"/>
    </contour>
  </outline>
</glyph>
<glyph name="uogonek" format="1">
  <advance width="608"/>
  <unicode hex="0173"/>
  <outline>
    <contour>
      <point x="545" y="547" type="line"/>
      <point x="545" y="0" type="line"/>
      <point x="530" y="-11"/>
      <point x="519" y="-20"/>
      <point x="504" y="-37" type="curve" smooth="yes"/>
      <point x="480" y="-63"/>
      <point x="472" y="-78"/>
      <point x="472" y="-97" type="curve" smooth="yes"/>
      <point x="472" y="-126"/>
      <point x="497" y="-146"/>
      <point x="531" y="-146" type="curve" smooth="yes"/>
      <point x="547" y="-146"/>
      <point x="561" y="-143"/>
      <point x="576" y="-136" type="curve"/>
      <point x="576" y="-182" type="line"/>
      <point x="557" y="-188"/>
      <point x="541" y="-191"/>
      <point x="525" y="-191" type="curve" smooth="yes"/>
      <point x="465" y="-191"/>
      <point x="422" y="-153"/>
      <point x="422" y="-101" type="curve" smooth="yes"/>
      <point x="422" y="-60"/>
      <point x="442" y="-31"/>
      <point x="493" y="0" type="curve"/>
      <point x="471" y="0" type="line"/>
      <point x="471" y="85" type="line"/>
      <point x="434" y="17"/>
      <point x="380" y="-13"/>
      <point x="295" y="-13" type="curve" smooth="yes"/>
      <point x="213" y="-13"/>
      <point x="147" y="17"/>
      <point x="106" y="74" type="curve" smooth="yes"/>
      <point x="77" y="114"/>
      <point x="63" y="171"/>
      <point x="63" y="252" type="curve" smooth="yes"/>
      <point x="63" y="547" type="line"/>
      <point x="137" y="547" type="line"/>
      <point x="137" y="252" type="line" smooth="yes"/>
      <point x="137" y="196"/>
      <point x="146" y="152"/>
      <point x="163" y="124" type="curve" smooth="yes"/>
      <point x="188" y="80"/>
      <point x="240" y="55"/>
      <point x="301" y="55" type="curve" smooth="yes"/>
      <point x="358" y="55"/>
      <point x="407" y="80"/>
      <point x="438" y="123" type="curve"/>
      <point x="461" y="157"/>
      <point x="471" y="199"/>
      <point x="471" y="266" type="curve" smooth="yes"/>
      <point x="471" y="547" type="line"/>
    </contour>
  </outline>
</glyph>
<glyph name="Wcircumflex" format="1">
  <advance width="960"/>
  <unicode hex="0174"/>
  <outline>
    <contour>
      <point x="303" y="839" type="line"/>
      <point x="448" y="965" type="line"/>
      <point x="514" y="965" type="line"/>
      <point x="657" y="839" type="line"/>
      <point x="568" y="839" type="line"/>
      <point x="482" y="913" type="line"/>
      <point x="394" y="839" type="line"/>
    </contour>
    <contour>
      <point x="221" y="0" type="line"/>
      <point x="10" y="739" type="line"/>
      <point x="86" y="739" type="line"/>
      <point x="268" y="96" type="line"/>
      <point x="445" y="739" type="line"/>
      <point x="515" y="739" type="line"/>
      <point x="692" y="96" type="line"/>
      <point x="874" y="739" type="line"/>
      <point x="950" y="739" type="line"/>
      <point x="738" y="0" type="line"/>
      <point x="643" y="0" type="line"/>
      <point x="479" y="606" type="line"/>
      <point x="317" y="0" type="line"/>
    </contour>
  </outline>
</glyph>
<glyph name="wcircumflex" format="1">
  <advance width="831"/>
  <unicode hex="0175"/>
  <outline>
    <contour>
      <point x="239" y="647" type="line"/>
      <point x="384" y="773" type="line"/>
      <point x="450" y="773" type="line"/>
      <point x="593" y="647" type="line"/>
      <point x="504" y="647" type="line"/>
      <point x="418" y="721" type="line"/>
      <point x="330" y="647" type="line"/>
    </contour>
    <contour>
      <point x="216" y="0" type="line"/>
      <point x="7" y="547" type="line"/>
      <point x="81" y="547" type="line"/>
      <point x="255" y="89" type="line"/>
      <point x="384" y="480" type="line"/>
      <point x="445" y="480" type="line"/>
      <point x="574" y="89" type="line"/>
      <point x="752" y="547" type="line"/>
      <point x="824" y="547" type="line"/>
      <point x="612" y="0" type="line"/>
      <point x="533" y="0" type="line"/>
      <point x="414" y="363" type="line"/>
      <point x="296" y="0" type="line"/>
    </contour>
  </outline>
</glyph>
<glyph name="Zdotaccent" format="1">
  <advance width="480"/>
  <unicode hex="017B"/>
  <outline>
    <contour>
      <point x="17" y="0" type="line"/>
      <point x="17" y="67" type="line"/>
      <point x="380" y="672" type="line"/>
      <point x="28" y="672" type="line"/>
      <point x="28" y="739" type="line"/>
      <point x="463" y="739" type="line"/>
      <point x="463" y="672" type="line"/>
      <point x="101" y="67" type="line"/>
      <point x="474" y="67" type="line"/>
      <point x="474" y="0" type="line"/>
    </contour>
    <contour>
      <point x="203" y="931" type="line"/>
      <point x="277" y="931" type="line"/>
      <point x="277" y="805" type="line"/>
      <point x="203" y="805" type="line"/>
    </contour>
  </outline>
</glyph>
<glyph name="zdotaccent" format="1">
  <advance width="425"/>
  <unicode hex="017C"/>
  <outline>
    <contour>
      <point x="10" y="0" type="line"/>
      <point x="10" y="67" type="line"/>
      <point x="312" y="480" type="line"/>
      <point x="20" y="480" type="line"/>
      <point x="20" y="547" type="line"/>
      <point x="396" y="547" type="line"/>
      <point x="396" y="484" type="line"/>
      <point x="97" y="67" type="line"/>
      <point x="415" y="67" type="line"/>
      <point x="415" y="0" type="line"/>
    </contour>
    <contour>
      <point x="176" y="749" type="line"/>
      <point x="250" y="749" type="line"/>
      <point x="250" y="623" type="line"/>
      <point x="176" y="623" type="line"/>
    </contour>
  </outline>
</glyph>
<glyph name="longs" format="1">
  <advance width="314"/>
  <unicode hex="017F"/>
  <outline>
    <contour>
      <point x="101" y="0" type="line"/>
      <point x="101" y="480" type="line"/>
      <point x="16" y="480" type="line"/>
      <point x="16" y="547" type="line"/>
      <point x="101" y="547" type="line"/>
      <point x="99" y="674"/>
      <point x="170" y="739"/>
      <point x="311" y="739" type="curve"/>
      <point x="311" y="672" type="line"/>
      <point x="210" y="671"/>
      <point x="174" y="638"/>
      <point x="175" y="547" type="curve"/>
      <point x="175" y="0" type="line"/>
    </contour>
  </outline>
</glyph>
<glyph name="uni0400" format="1">
  <advance width="536"/>
  <unicode hex="0400"/>
  <outline>
    <contour>
      <point x="113" y="978" type="line"/>
      <point x="311" y="868" type="line"/>
      <point x="278" y="812" type="line"/>
      <point x="81" y="920" type="line"/>
    </contour>
    <contour>
      <point x="76" y="0" type="line"/>
      <point x="76" y="739" type="line"/>
      <point x="480" y="739" type="line"/>
      <point x="480" y="672" type="line"/>
      <point x="150" y="672" type="line"/>
      <point x="150" y="407" type="line"/>
      <point x="469" y="407" type="line"/>
      <point x="469" y="340" type="line"/>
      <point x="150" y="340" type="line"/>
      <point x="150" y="67" type="line"/>
      <point x="480" y="67" type="line"/>
      <point x="480" y="0" type="line"/>
    </contour>
  </outline>
</glyph>
<glyph name="afii10051" format="1">
  <advance width="628"/>
  <unicode hex="0402"/>
  <outline>
    <contour>
      <point x="250" y="385" type="line"/>
      <point x="250" y="0" type="line"/>
      <point x="176" y="0" type="line"/>
      <point x="176" y="672" type="line"/>
      <point x="7" y="672" type="line"/>
      <point x="7" y="739" type="line"/>
      <point x="505" y="739" type="line"/>
      <point x="505" y="672" type="line"/>
      <point x="250" y="672" type="line"/>
      <point x="250" y="452" type="line"/>
      <point x="322" y="452" type="line" smooth="yes"/>
      <point x="553" y="452"/>
      <point x="586" y="328"/>
      <point x="586" y="145" type="curve" smooth="yes"/>
      <point x="586" y="-34"/>
      <point x="552" y="-180"/>
      <point x="382" y="-180" type="curve" smooth="yes"/>
      <point x="318" y="-180" type="line"/>
      <point x="318" y="-113" type="line"/>
      <point x="384" y="-113" type="line" smooth="yes"/>
      <point x="490" y="-113"/>
      <point x="512" y="29"/>
      <point x="512" y="143" type="curve" smooth="yes"/>
      <point x="512" y="262"/>
      <point x="499" y="385"/>
      <point x="325" y="385" type="curve" smooth="yes"/>
    </contour>
  </outline>
</glyph>
<glyph name="afii10056" format="1">
  <advance width="226"/>
  <unicode hex="0407"/>
  <outline>
    <contour>
      <point x="76" y="0" type="line"/>
      <point x="76" y="739" type="line"/>
      <point x="150" y="739" type="line"/>
      <point x="150" y="0" type="line"/>
    </contour>
    <contour>
      <point x="2" y="905" type="line"/>
      <point x="76" y="905" type="line"/>
      <point x="76" y="779" type="line"/>
      <point x="2" y="779" type="line"/>
    </contour>
    <contour>
      <point x="149" y="905" type="line"/>
      <point x="223" y="905" type="line"/>
      <point x="223" y="779" type="line"/>
      <point x="149" y="779" type="line"/>
    </contour>
  </outline>
</glyph>
<glyph name="afii10059" format="1">
  <advance width="957"/>
  <unicode hex="040A"/>
  <outline>
    <contour>
      <point x="516" y="67" type="line"/>
      <point x="617" y="67" type="line" smooth="yes"/>
      <point x="692" y="67"/>
      <point x="742" y="75"/>
      <point x="777" y="94" type="curve" smooth="yes"/>
      <point x="812" y="112"/>
      <point x="835" y="166"/>
      <point x="835" y="217" type="curve" smooth="yes"/>
      <point x="835" y="276"/>
      <point x="810" y="330"/>
      <point x="766" y="352" type="curve" smooth="yes"/>
      <point x="735" y="367"/>
      <point x="691" y="373"/>
      <point x="604" y="373" type="curve" smooth="yes"/>
      <point x="516" y="373" type="line"/>
    </contour>
    <contour>
      <point x="442" y="0" type="line"/>
      <point x="442" y="371" type="line"/>
      <point x="150" y="371" type="line"/>
      <point x="150" y="0" type="line"/>
      <point x="76" y="0" type="line"/>
      <point x="76" y="739" type="line"/>
      <point x="150" y="739" type="line"/>
      <point x="150" y="439" type="line"/>
      <point x="442" y="439" type="line"/>
      <point x="442" y="739" type="line"/>
      <point x="516" y="739" type="line"/>
      <point x="516" y="440" type="line"/>
      <point x="606" y="440" type="line" smooth="yes"/>
      <point x="652" y="440"/>
      <point x="763" y="437"/>
      <point x="811" y="410" type="curve" smooth="yes"/>
      <point x="861" y="382"/>
      <point x="910" y="311"/>
      <point x="910" y="221" type="curve" smooth="yes"/>
      <point x="910" y="145"/>
      <point x="879" y="71"/>
      <point x="827" y="39" type="curve" smooth="yes"/>
      <point x="780" y="11"/>
      <point x="724" y="0"/>
      <point x="625" y="0" type="curve" smooth="yes"/>
    </contour>
  </outline>
</glyph>
<glyph name="uni040D" format="1">
  <advance width="663"/>
  <unicode hex="040D"/>
  <outline>
    <contour>
      <point x="166" y="978" type="line"/>
      <point x="364" y="868" type="line"/>
      <point x="331" y="812" type="line"/>
      <point x="134" y="920" type="line"/>
    </contour>
    <contour>
      <point x="76" y="739" type="line"/>
      <point x="150" y="739" type="line"/>
      <point x="150" y="83" type="line"/>
      <point x="507" y="739" type="line"/>
      <point x="587" y="739" type="line"/>
      <point x="587" y="0" type="line"/>
      <point x="513" y="0" type="line"/>
      <point x="513" y="619" type="line"/>
      <point x="183" y="0" type="line"/>
      <point x="76" y="0" type="line"/>
    </contour>
  </outline>
</glyph>
<glyph name="afii10145" format="1">
  <advance width="683"/>
  <unicode hex="040F"/>
  <outline>
    <contour>
      <point x="304" y="0" type="line"/>
      <point x="76" y="0" type="line"/>
      <point x="76" y="739" type="line"/>
      <point x="150" y="739" type="line"/>
      <point x="150" y="67" type="line"/>
      <point x="533" y="67" type="line"/>
      <point x="533" y="739" type="line"/>
      <point x="607" y="739" type="line"/>
      <point x="607" y="0" type="line"/>
      <point x="378" y="0" type="line"/>
      <point x="378" y="-140" type="line"/>
      <point x="304" y="-140" type="line"/>
    </contour>
  </outline>
</glyph>
<glyph name="afii10020" format="1">
  <advance width="517"/>
  <unicode hex="0413"/>
  <outline>
    <contour>
      <point x="150" y="0" type="line"/>
      <point x="76" y="0" type="line"/>
      <point x="76" y="739" type="line"/>
      <point x="510" y="739" type="line"/>
      <point x="510" y="672" type="line"/>
      <point x="150" y="672" type="line"/>
    </contour>
  </outline>
</glyph>
<glyph name="afii10021" format="1">
  <advance width="767"/>
  <unicode hex="0414"/>
  <outline>
    <contour>
      <point x="176" y="67" type="line"/>
      <point x="593" y="67" type="line"/>
      <point x="384" y="647" type="line"/>
    </contour>
    <contour>
      <point x="667" y="0" type="line"/>
      <point x="100" y="0" type="line"/>
      <point x="100" y="-126" type="line"/>
      <point x="26" y="-126" type="line"/>
      <point x="26" y="67" type="line"/>
      <point x="96" y="67" type="line"/>
      <point x="348" y="739" type="line"/>
      <point x="420" y="739" type="line"/>
      <point x="671" y="67" type="line"/>
      <point x="741" y="67" type="line"/>
      <point x="741" y="-126" type="line"/>
      <point x="667" y="-126" type="line"/>
    </contour>
  </outline>
</glyph>
<glyph name="afii10025" format="1">
  <advance width="673"/>
  <unicode hex="0417"/>
  <outline>
    <contour>
      <point x="123" y="194" type="line"/>
      <point x="144" y="154"/>
      <point x="230" y="55"/>
      <point x="360" y="55" type="curve" smooth="yes"/>
      <point x="480" y="55"/>
      <point x="573" y="96"/>
      <point x="573" y="206" type="curve" smooth="yes"/>
      <point x="573" y="298"/>
      <point x="499" y="357"/>
      <point x="415" y="357" type="curve" smooth="yes"/>
      <point x="291" y="357" type="line"/>
      <point x="291" y="424" type="line"/>
      <point x="417" y="424" type="line" smooth="yes"/>
      <point x="498" y="424"/>
      <point x="553" y="476"/>
      <point x="553" y="549" type="curve" smooth="yes"/>
      <point x="553" y="638"/>
      <point x="456" y="684"/>
      <point x="366" y="684" type="curve" smooth="yes"/>
      <point x="196" y="684"/>
      <point x="152" y="549"/>
      <point x="152" y="549" type="curve"/>
      <point x="77" y="549" type="line"/>
      <point x="77" y="549"/>
      <point x="126" y="752"/>
      <point x="370" y="752" type="curve" smooth="yes"/>
      <point x="498" y="752"/>
      <point x="630" y="676"/>
      <point x="630" y="550" type="curve" smooth="yes"/>
      <point x="630" y="474"/>
      <point x="589" y="419"/>
      <point x="533" y="387" type="curve"/>
      <point x="586" y="371"/>
      <point x="648" y="302"/>
      <point x="648" y="210" type="curve" smooth="yes"/>
      <point x="648" y="60"/>
      <point x="540" y="-13"/>
      <point x="354" y="-13" type="curve" smooth="yes"/>
      <point x="142" y="-13"/>
      <point x="54" y="160"/>
      <point x="44" y="194" type="curve"/>
    </contour>
  </outline>
</glyph>
<glyph name="afii10027" format="1">
  <advance width="663"/>
  <unicode hex="0419"/>
  <outline>
    <contour>
      <point x="180" y="919" type="curve"/>
      <point x="244" y="919" type="line"/>
      <point x="248" y="894"/>
      <point x="255" y="883"/>
      <point x="270" y="873" type="curve"/>
      <point x="288" y="863"/>
      <point x="310" y="857"/>
      <point x="332" y="857" type="curve" smooth="yes"/>
      <point x="354" y="857"/>
      <point x="376" y="863"/>
      <point x="394" y="873" type="curve"/>
      <point x="409" y="883"/>
      <point x="416" y="894"/>
      <point x="420" y="919" type="curve"/>
      <point x="484" y="919" type="line"/>
      <point x="475" y="870"/>
      <point x="463" y="848"/>
      <point x="435" y="828" type="curve" smooth="yes"/>
      <point x="409" y="809"/>
      <point x="374" y="799"/>
      <point x="332" y="799" type="curve" smooth="yes"/>
      <point x="243" y="799"/>
      <point x="195" y="837"/>
    </contour>
    <contour>
      <point x="76" y="739" type="line"/>
      <point x="150" y="739" type="line"/>
      <point x="150" y="83" type="line"/>
      <point x="507" y="739" type="line"/>
      <point x="587" y="739" type="line"/>
      <point x="587" y="0" type="line"/>
      <point x="513" y="0" type="line"/>
      <point x="513" y="619" type="line"/>
      <point x="183" y="0" type="line"/>
      <point x="76" y="0" type="line"/>
    </contour>
  </outline>
</glyph>
<glyph name="afii10029" format="1">
  <advance width="702"/>
  <unicode hex="041B"/>
  <outline>
    <contour>
      <point x="314" y="739" type="line"/>
      <point x="386" y="739" type="line"/>
      <point x="665" y="0" type="line"/>
      <point x="587" y="0" type="line"/>
      <point x="351" y="647" type="line"/>
      <point x="116" y="0" type="line"/>
      <point x="35" y="0" type="line"/>
    </contour>
  </outline>
</glyph>
<glyph name="afii10038" format="1">
  <advance width="825"/>
  <unicode hex="0424"/>
  <outline>
    <contour>
      <point x="452" y="67" type="curve"/>
      <point x="452" y="-42" type="line"/>
      <point x="378" y="-42" type="line"/>
      <point x="378" y="67" type="line"/>
      <point x="161" y="67"/>
      <point x="48" y="198"/>
      <point x="48" y="394" type="curve" smooth="yes"/>
      <point x="48" y="590"/>
      <point x="166" y="712"/>
      <point x="378" y="712" type="curve"/>
      <point x="378" y="794" type="line"/>
      <point x="452" y="794" type="line"/>
      <point x="452" y="712" type="line"/>
      <point x="654" y="712"/>
      <point x="785" y="594"/>
      <point x="785" y="389" type="curve" smooth="yes"/>
      <point x="785" y="186"/>
      <point x="655" y="67"/>
    </contour>
    <contour>
      <point x="452" y="644" type="curve"/>
      <point x="452" y="135" type="line"/>
      <point x="617" y="135"/>
      <point x="710" y="223"/>
      <point x="710" y="388" type="curve" smooth="yes"/>
      <point x="710" y="555"/>
      <point x="609" y="644"/>
    </contour>
    <contour>
      <point x="378" y="644" type="line"/>
      <point x="219" y="644"/>
      <point x="123" y="548"/>
      <point x="123" y="392" type="curve" smooth="yes"/>
      <point x="123" y="236"/>
      <point x="217" y="135"/>
      <point x="378" y="135" type="curve"/>
    </contour>
  </outline>
</glyph>
<glyph name="afii10040" format="1">
  <advance width="712"/>
  <unicode hex="0426"/>
  <outline>
    <contour>
      <point x="76" y="739" type="line"/>
      <point x="150" y="739" type="line"/>
      <point x="150" y="67" type="line"/>
      <point x="533" y="67" type="line"/>
      <point x="533" y="739" type="line"/>
      <point x="607" y="739" type="line"/>
      <point x="607" y="67" type="line"/>
      <point x="668" y="67" type="line"/>
      <point x="668" y="-140" type="line"/>
      <point x="594" y="-140" type="line"/>
      <point x="594" y="0" type="line"/>
      <point x="76" y="0" type="line"/>
    </contour>
  </outline>
</glyph>
<glyph name="afii10043" format="1">
  <advance width="983"/>
  <unicode hex="0429"/>
  <outline>
    <contour>
      <point x="949" y="67" type="line"/>
      <point x="949" y="-140" type="line"/>
      <point x="875" y="-140" type="line"/>
      <point x="875" y="0" type="line"/>
      <point x="76" y="0" type="line"/>
      <point x="76" y="739" type="line"/>
      <point x="150" y="739" type="line"/>
      <point x="150" y="67" type="line"/>
      <point x="445" y="67" type="line"/>
      <point x="445" y="739" type="line"/>
      <point x="519" y="739" type="line"/>
      <point x="519" y="67" type="line"/>
      <point x="814" y="67" type="line"/>
      <point x="814" y="739" type="line"/>
      <point x="888" y="739" type="line"/>
      <point x="888" y="67" type="line"/>
    </contour>
  </outline>
</glyph>
<glyph name="afii10044" format="1">
  <advance width="788"/>
  <unicode hex="042A"/>
  <outline>
    <contour>
      <point x="215" y="0" type="line"/>
      <point x="215" y="672" type="line"/>
      <point x="6" y="672" type="line"/>
      <point x="6" y="739" type="line"/>
      <point x="289" y="739" type="line"/>
      <point x="289" y="474" type="line"/>
      <point x="398" y="474" type="line" smooth="yes"/>
      <point x="612" y="474"/>
      <point x="716" y="405"/>
      <point x="716" y="236" type="curve" smooth="yes"/>
      <point x="716" y="70"/>
      <point x="611" y="0"/>
      <point x="398" y="0" type="curve" smooth="yes"/>
    </contour>
    <contour>
      <point x="289" y="407" type="line"/>
      <point x="289" y="67" type="line"/>
      <point x="393" y="67" type="line" smooth="yes"/>
      <point x="549" y="67"/>
      <point x="641" y="104"/>
      <point x="641" y="236" type="curve" smooth="yes"/>
      <point x="641" y="370"/>
      <point x="550" y="407"/>
      <point x="393" y="407" type="curve" smooth="yes"/>
    </contour>
  </outline>
</glyph>
<glyph name="afii10049" format="1">
  <advance width="604"/>
  <unicode hex="042F"/>
  <outline>
    <contour>
      <point x="278" y="279" type="line"/>
      <point x="113" y="279"/>
      <point x="27" y="370"/>
      <point x="27" y="501" type="curve" smooth="yes"/>
      <point x="27" y="594"/>
      <point x="66" y="664"/>
      <point x="138" y="703" type="curve" smooth="yes"/>
      <point x="184" y="728"/>
      <point x="248" y="739"/>
      <point x="345" y="739" type="curve" smooth="yes"/>
      <point x="528" y="739" type="line"/>
      <point x="528" y="0" type="line"/>
      <point x="454" y="0" type="line"/>
      <point x="454" y="672" type="line"/>
      <point x="350" y="672" type="line" smooth="yes"/>
      <point x="272" y="672"/>
      <point x="220" y="664"/>
      <point x="180" y="645" type="curve" smooth="yes"/>
      <point x="130" y="621"/>
      <point x="102" y="571"/>
      <point x="102" y="504" type="curve" smooth="yes"/>
      <point x="102" y="420"/>
      <point x="140" y="368"/>
      <point x="214" y="348" type="curve" smooth="yes"/>
      <point x="249" y="339"/>
      <point x="337" y="341"/>
      <point x="419" y="341" type="curve"/>
      <point x="130" y="0" type="line"/>
      <point x="38" y="0" type="line"/>
    </contour>
  </outline>
</glyph>
<glyph name="afii10069" format="1">
  <advance width="668"/>
  <unicode hex="0434"/>
  <outline>
    <contour>
      <point x="499" y="67" type="line"/>
      <point x="331" y="460" type="line"/>
      <point x="167" y="67" type="line"/>
    </contour>
    <contour>
      <point x="111" y="0" type="line"/>
      <point x="111" y="-120" type="line"/>
      <point x="27" y="-120" type="line"/>
      <point x="27" y="67" type="line"/>
      <point x="93" y="67" type="line"/>
      <point x="295" y="547" type="line"/>
      <point x="373" y="547" type="line"/>
      <point x="575" y="67" type="line"/>
      <point x="641" y="67" type="line"/>
      <point x="641" y="-120" type="line"/>
      <point x="557" y="-120" type="line"/>
      <point x="557" y="0" type="line"/>
    </contour>
  </outline>
</glyph>
<glyph name="afii10075" format="1">
  <advance width="608"/>
  <unicode hex="0439"/>
  <outline>
    <contour>
      <point x="153" y="733" type="curve"/>
      <point x="217" y="733" type="line"/>
      <point x="221" y="708"/>
      <point x="228" y="697"/>
      <point x="243" y="687" type="curve"/>
      <point x="261" y="677"/>
      <point x="283" y="671"/>
      <point x="305" y="671" type="curve" smooth="yes"/>
      <point x="327" y="671"/>
      <point x="349" y="677"/>
      <point x="367" y="687" type="curve"/>
      <point x="382" y="697"/>
      <point x="389" y="708"/>
      <point x="393" y="733" type="curve"/>
      <point x="457" y="733" type="line"/>
      <point x="448" y="684"/>
      <point x="436" y="662"/>
      <point x="408" y="642" type="curve" smooth="yes"/>
      <point x="382" y="623"/>
      <point x="347" y="613"/>
      <point x="305" y="613" type="curve" smooth="yes"/>
      <point x="216" y="613"/>
      <point x="168" y="651"/>
    </contour>
    <contour>
      <point x="63" y="0" type="line"/>
      <point x="63" y="547" type="line"/>
      <point x="136" y="547" type="line"/>
      <point x="136" y="102" type="line"/>
      <point x="472" y="547" type="line"/>
      <point x="545" y="547" type="line"/>
      <point x="545" y="0" type="line"/>
      <point x="472" y="0" type="line"/>
      <point x="472" y="445" type="line"/>
      <point x="136" y="0" type="line"/>
    </contour>
  </outline>
</glyph>
<glyph name="afii10079" format="1">
  <advance width="579"/>
  <unicode hex="043D"/>
  <outline>
    <contour>
      <point x="63" y="0" type="line"/>
      <point x="63" y="547" type="line"/>
      <point x="136" y="547" type="line"/>
      <point x="136" y="317" type="line"/>
      <point x="443" y="317" type="line"/>
      <point x="443" y="547" type="line"/>
      <point x="516" y="547" type="line"/>
      <point x="516" y="0" type="line"/>
      <point x="443" y="0" type="line"/>
      <point x="443" y="250" type="line"/>
      <point x="136" y="250" type="line"/>
      <point x="136" y="0" type="line"/>
    </contour>
  </outline>
</glyph>
<glyph name="afii10081" format="1">
  <advance width="579"/>
  <unicode hex="043F"/>
  <outline>
    <contour>
      <point x="63" y="0" type="line"/>
      <point x="63" y="547" type="line"/>
      <point x="516" y="547" type="line"/>
      <point x="516" y="0" type="line"/>
      <point x="442" y="0" type="line"/>
      <point x="442" y="480" type="line"/>
      <point x="137" y="480" type="line"/>
      <point x="137" y="0" type="line"/>
    </contour>
  </outline>
</glyph>
<glyph name="afii10092" format="1">
  <advance width="624"/>
  <unicode hex="044A"/>
  <outline>
    <contour>
      <point x="153" y="0" type="line"/>
      <point x="153" y="470" type="line"/>
      <point x="6" y="470" type="line"/>
      <point x="6" y="547" type="line"/>
      <point x="227" y="547" type="line"/>
      <point x="227" y="369" type="line"/>
      <point x="369" y="369" type="line" smooth="yes"/>
      <point x="492" y="369"/>
      <point x="582" y="293"/>
      <point x="582" y="183" type="curve" smooth="yes"/>
      <point x="582" y="73"/>
      <point x="493" y="0"/>
      <point x="373" y="0" type="curve" smooth="yes"/>
    </contour>
    <contour>
      <point x="227" y="67" type="line"/>
      <point x="372" y="67" type="line"/>
      <point x="452" y="68"/>
      <point x="508" y="113"/>
      <point x="508" y="183" type="curve" smooth="yes"/>
      <point x="508" y="253"/>
      <point x="450" y="301"/>
      <point x="369" y="301" type="curve" smooth="yes"/>
      <point x="227" y="301" type="line"/>
    </contour>
  </outline>
</glyph>
<glyph name="afii10099" format="1">
  <advance width="578"/>
  <unicode hex="0452"/>
  <outline>
    <contour>
      <point x="409" y="-101" type="curve" smooth="yes"/>
      <point x="439" y="-67"/>
      <point x="450" y="-21"/>
      <point x="450" y="55" type="curve" smooth="yes"/>
      <point x="450" y="221" type="line" smooth="yes"/>
      <point x="450" y="297"/>
      <point x="406" y="333"/>
      <point x="387" y="345" type="curve" smooth="yes"/>
      <point x="377" y="351"/>
      <point x="327" y="369"/>
      <point x="279" y="369" type="curve" smooth="yes"/>
      <point x="194" y="369" type="line"/>
      <point x="194" y="0" type="line"/>
      <point x="120" y="0" type="line"/>
      <point x="120" y="567" type="line"/>
      <point x="6" y="567" type="line"/>
      <point x="6" y="634" type="line"/>
      <point x="120" y="634" type="line"/>
      <point x="120" y="739" type="line"/>
      <point x="194" y="739" type="line"/>
      <point x="194" y="634" type="line"/>
      <point x="412" y="634" type="line"/>
      <point x="412" y="567" type="line"/>
      <point x="194" y="567" type="line"/>
      <point x="194" y="430" type="line"/>
      <point x="276" y="430" type="line" smooth="yes"/>
      <point x="369" y="430"/>
      <point x="422" y="406"/>
      <point x="443" y="389" type="curve" smooth="yes"/>
      <point x="490" y="350"/>
      <point x="524" y="300"/>
      <point x="524" y="227" type="curve" smooth="yes"/>
      <point x="524" y="95" type="line" smooth="yes"/>
      <point x="524" y="9"/>
      <point x="512" y="-61"/>
      <point x="492" y="-98" type="curve" smooth="yes"/>
      <point x="472" y="-135"/>
      <point x="447" y="-168"/>
      <point x="420" y="-179" type="curve" smooth="yes"/>
      <point x="394" y="-190"/>
      <point x="335" y="-201"/>
      <point x="286" y="-201" type="curve"/>
      <point x="286" y="-139" type="line"/>
      <point x="360" y="-139"/>
      <point x="390" y="-123"/>
    </contour>
  </outline>
</glyph>
<glyph name="afii10104" format="1">
  <advance width="200"/>
  <unicode hex="0457"/>
  <outline>
    <contour>
      <point x="63" y="0" type="line"/>
      <point x="63" y="547" type="line"/>
      <point x="137" y="547" type="line"/>
      <point x="137" y="0" type="line"/>
    </contour>
    <contour>
      <point x="-10" y="746" type="line"/>
      <point x="64" y="746" type="line"/>
      <point x="64" y="620" type="line"/>
      <point x="-10" y="620" type="line"/>
    </contour>
    <contour>
      <point x="137" y="746" type="line"/>
      <point x="211" y="746" type="line"/>
      <point x="211" y="620" type="line"/>
      <point x="137" y="620" type="line"/>
    </contour>
  </outline>
</glyph>
<glyph name="afii10106" format="1">
  <advance width="807"/>
  <unicode hex="0459"/>
  <outline>
    <contour>
      <point x="402" y="343" type="line"/>
      <point x="569" y="343" type="line" smooth="yes"/>
      <point x="679" y="343"/>
      <point x="780" y="310"/>
      <point x="780" y="169" type="curve" smooth="yes"/>
      <point x="780" y="42"/>
      <point x="706" y="0"/>
      <point x="569" y="0" type="curve" smooth="yes"/>
      <point x="471" y="0" type="line"/>
      <point x="275" y="460" type="line"/>
      <point x="83" y="0" type="line"/>
      <point x="8" y="0" type="line"/>
      <point x="238" y="547" type="line"/>
      <point x="316" y="547" type="line"/>
    </contour>
    <contour>
      <point x="569" y="269" type="curve" smooth="yes"/>
      <point x="433" y="269" type="line"/>
      <point x="518" y="67" type="line"/>
      <point x="569" y="67" type="line" smooth="yes"/>
      <point x="671" y="67"/>
      <point x="714" y="97"/>
      <point x="714" y="166" type="curve" smooth="yes"/>
      <point x="714" y="241"/>
      <point x="675" y="269"/>
    </contour>
  </outline>
</glyph>
<glyph name="uni048C" format="1">
  <advance width="571"/>
  <unicode hex="048C"/>
  <outline>
    <contour>
      <point x="150" y="67" type="line"/>
      <point x="251" y="67" type="line" smooth="yes"/>
      <point x="326" y="67"/>
      <point x="376" y="75"/>
      <point x="411" y="94" type="curve" smooth="yes"/>
      <point x="446" y="112"/>
      <point x="469" y="157"/>
      <point x="469" y="208" type="curve" smooth="yes"/>
      <point x="469" y="267"/>
      <point x="444" y="311"/>
      <point x="400" y="333" type="curve" smooth="yes"/>
      <point x="369" y="348"/>
      <point x="325" y="354"/>
      <point x="238" y="354" type="curve" smooth="yes"/>
      <point x="150" y="354" type="line"/>
    </contour>
    <contour>
      <point x="76" y="561" type="line"/>
      <point x="4" y="561" type="line"/>
      <point x="4" y="625" type="line"/>
      <point x="76" y="625" type="line"/>
      <point x="76" y="739" type="line"/>
      <point x="150" y="739" type="line"/>
      <point x="150" y="625" type="line"/>
      <point x="230" y="625" type="line"/>
      <point x="230" y="561" type="line"/>
      <point x="150" y="561" type="line"/>
      <point x="150" y="421" type="line"/>
      <point x="240" y="421" type="line" smooth="yes"/>
      <point x="286" y="421"/>
      <point x="397" y="418"/>
      <point x="445" y="391" type="curve" smooth="yes"/>
      <point x="495" y="363"/>
      <point x="544" y="302"/>
      <point x="544" y="212" type="curve" smooth="yes"/>
      <point x="544" y="136"/>
      <point x="513" y="71"/>
      <point x="461" y="39" type="curve" smooth="yes"/>
      <point x="414" y="11"/>
      <point x="358" y="0"/>
      <point x="259" y="0" type="curve" smooth="yes"/>
      <point x="76" y="0" type="line"/>
    </contour>
  </outline>
</glyph>
<glyph name="uni048D" format="1">
  <advance width="466"/>
  <unicode hex="048D"/>
  <outline>
    <contour>
      <point x="62" y="0" type="line"/>
      <point x="62" y="413" type="line"/>
      <point x="3" y="413" type="line"/>
      <point x="3" y="477" type="line"/>
      <point x="63" y="477" type="line"/>
      <point x="63" y="547" type="line"/>
      <point x="137" y="547" type="line"/>
      <point x="137" y="477" type="line"/>
      <point x="204" y="477" type="line"/>
      <point x="204" y="413" type="line"/>
      <point x="137" y="412" type="line"/>
      <point x="137" y="343" type="line"/>
      <point x="228" y="343" type="line" smooth="yes"/>
      <point x="338" y="343"/>
      <point x="439" y="310"/>
      <point x="439" y="169" type="curve" smooth="yes"/>
      <point x="439" y="42"/>
      <point x="365" y="0"/>
      <point x="228" y="0" type="curve" smooth="yes"/>
    </contour>
    <contour>
      <point x="228" y="269" type="curve" smooth="yes"/>
      <point x="137" y="269" type="line"/>
      <point x="137" y="67" type="line"/>
      <point x="228" y="67" type="line" smooth="yes"/>
      <point x="330" y="67"/>
      <point x="373" y="97"/>
      <point x="373" y="166" type="curve" smooth="yes"/>
      <point x="373" y="241"/>
      <point x="334" y="269"/>
    </contour>
  </outline>
</glyph>
<glyph name="uni0494" format="1">
  <advance width="566"/>
  <unicode hex="0494"/>
  <outline>
    <contour>
      <point x="150" y="0" type="line"/>
      <point x="76" y="0" type="line"/>
      <point x="76" y="739" type="line"/>
      <point x="480" y="739" type="line"/>
      <point x="480" y="672" type="line"/>
      <point x="150" y="672" type="line"/>
      <point x="150" y="452" type="line"/>
      <point x="242" y="452" type="line" smooth="yes"/>
      <point x="473" y="452"/>
      <point x="506" y="328"/>
      <point x="506" y="145" type="curve" smooth="yes"/>
      <point x="506" y="-34"/>
      <point x="472" y="-180"/>
      <point x="302" y="-180" type="curve" smooth="yes"/>
      <point x="238" y="-180" type="line"/>
      <point x="238" y="-113" type="line"/>
      <point x="304" y="-113" type="line" smooth="yes"/>
      <point x="410" y="-113"/>
      <point x="432" y="29"/>
      <point x="432" y="143" type="curve" smooth="yes"/>
      <point x="432" y="262"/>
      <point x="419" y="385"/>
      <point x="245" y="385" type="curve" smooth="yes"/>
      <point x="150" y="385" type="line"/>
    </contour>
  </outline>
</glyph>
<glyph name="uni0498" format="1">
  <advance width="673"/>
  <unicode hex="0498"/>
  <outline>
    <contour>
      <point x="382" y="-12" type="curve"/>
      <point x="419" y="-39"/>
      <point x="435" y="-66"/>
      <point x="435" y="-101" type="curve" smooth="yes"/>
      <point x="435" y="-153"/>
      <point x="392" y="-191"/>
      <point x="332" y="-191" type="curve" smooth="yes"/>
      <point x="316" y="-191"/>
      <point x="300" y="-188"/>
      <point x="281" y="-182" type="curve"/>
      <point x="281" y="-136" type="line"/>
      <point x="296" y="-143"/>
      <point x="310" y="-146"/>
      <point x="326" y="-146" type="curve" smooth="yes"/>
      <point x="360" y="-146"/>
      <point x="385" y="-125"/>
      <point x="385" y="-97" type="curve" smooth="yes"/>
      <point x="385" y="-73"/>
      <point x="362" y="-41"/>
      <point x="328" y="-12" type="curve"/>
      <point x="135" y="1"/>
      <point x="54" y="161"/>
      <point x="44" y="194" type="curve"/>
      <point x="123" y="194" type="line"/>
      <point x="144" y="154"/>
      <point x="230" y="55"/>
      <point x="360" y="55" type="curve" smooth="yes"/>
      <point x="480" y="55"/>
      <point x="573" y="96"/>
      <point x="573" y="206" type="curve" smooth="yes"/>
      <point x="573" y="298"/>
      <point x="499" y="357"/>
      <point x="415" y="357" type="curve" smooth="yes"/>
      <point x="291" y="357" type="line"/>
      <point x="291" y="424" type="line"/>
      <point x="417" y="424" type="line" smooth="yes"/>
      <point x="498" y="424"/>
      <point x="553" y="476"/>
      <point x="553" y="549" type="curve" smooth="yes"/>
      <point x="553" y="638"/>
      <point x="456" y="684"/>
      <point x="366" y="684" type="curve" smooth="yes"/>
      <point x="196" y="684"/>
      <point x="152" y="549"/>
      <point x="152" y="549" type="curve"/>
      <point x="77" y="549" type="line"/>
      <point x="77" y="549"/>
      <point x="126" y="752"/>
      <point x="370" y="752" type="curve" smooth="yes"/>
      <point x="498" y="752"/>
      <point x="630" y="676"/>
      <point x="630" y="550" type="curve" smooth="yes"/>
      <point x="630" y="474"/>
      <point x="589" y="419"/>
      <point x="533" y="387" type="curve"/>
      <point x="586" y="371"/>
      <point x="648" y="302"/>
      <point x="648" y="210" type="curve" smooth="yes"/>
      <point x="648" y="68"/>
      <point x="551" y="-5"/>
    </contour>
  </outline>
</glyph>
<glyph name="uni049A" format="1">
  <advance width="620"/>
  <unicode hex="049A"/>
  <outline>
    <contour>
      <point x="150" y="0" type="line"/>
      <point x="76" y="0" type="line"/>
      <point x="76" y="739" type="line"/>
      <point x="150" y="739" type="line"/>
    </contour>
    <contour>
      <point x="515" y="67" type="line"/>
      <point x="576" y="67" type="line"/>
      <point x="576" y="-140" type="line"/>
      <point x="502" y="-140" type="line"/>
      <point x="502" y="0" type="line"/>
      <point x="477" y="0" type="line"/>
      <point x="165" y="379" type="line"/>
      <point x="467" y="739" type="line"/>
      <point x="560" y="739" type="line"/>
      <point x="258" y="379" type="line"/>
    </contour>
  </outline>
</glyph>
<glyph name="uni049D" format="1">
  <advance width="502"/>
  <unicode hex="049D"/>
  <outline>
    <contour>
      <point x="137" y="547" type="line"/>
      <point x="137" y="0" type="line"/>
      <point x="63" y="0" type="line"/>
      <point x="63" y="547" type="line"/>
    </contour>
    <contour>
      <point x="265" y="383" type="line"/>
      <point x="392" y="547" type="line"/>
      <point x="483" y="547" type="line"/>
      <point x="270" y="272" type="line"/>
      <point x="497" y="0" type="line"/>
      <point x="405" y="0" type="line"/>
      <point x="265" y="168" type="line"/>
      <point x="265" y="99" type="line"/>
      <point x="201" y="99" type="line"/>
      <point x="201" y="246" type="line"/>
      <point x="179" y="272" type="line"/>
      <point x="201" y="300" type="line"/>
      <point x="201" y="466" type="line"/>
      <point x="265" y="466" type="line"/>
    </contour>
  </outline>
</glyph>
<glyph name="uni049E" format="1">
  <advance width="614"/>
  <unicode hex="049E"/>
  <outline>
    <contour>
      <point x="500" y="0" type="line"/>
      <point x="188" y="379" type="line"/>
      <point x="490" y="739" type="line"/>
      <point x="583" y="739" type="line"/>
      <point x="281" y="379" type="line"/>
      <point x="593" y="0" type="line"/>
    </contour>
    <contour>
      <point x="173" y="603" type="line"/>
      <point x="173" y="0" type="line"/>
      <point x="99" y="0" type="line"/>
      <point x="99" y="603" type="line"/>
      <point x="17" y="603" type="line"/>
      <point x="17" y="667" type="line"/>
      <point x="99" y="667" type="line"/>
      <point x="99" y="739" type="line"/>
      <point x="173" y="739" type="line"/>
      <point x="173" y="667" type="line"/>
      <point x="254" y="667" type="line"/>
      <point x="254" y="603" type="line"/>
    </contour>
  </outline>
</glyph>
<glyph name="uni04A0" format="1">
  <advance width="730"/>
  <unicode hex="04A0"/>
  <outline>
    <contour>
      <point x="289" y="739" type="line"/>
      <point x="289" y="0" type="line"/>
      <point x="215" y="0" type="line"/>
      <point x="215" y="672" type="line"/>
      <point x="6" y="672" type="line"/>
      <point x="6" y="739" type="line"/>
    </contour>
    <contour>
      <point x="616" y="0" type="line"/>
      <point x="304" y="379" type="line"/>
      <point x="606" y="739" type="line"/>
      <point x="699" y="739" type="line"/>
      <point x="397" y="379" type="line"/>
      <point x="709" y="0" type="line"/>
    </contour>
  </outline>
</glyph>
<glyph name="uni04A3" format="1">
  <advance width="609"/>
  <unicode hex="04A3"/>
  <outline>
    <contour>
      <point x="516" y="67" type="line"/>
      <point x="582" y="67" type="line"/>
      <point x="582" y="-129" type="line"/>
      <point x="508" y="-129" type="line"/>
      <point x="508" y="0" type="line"/>
      <point x="443" y="0" type="line"/>
      <point x="443" y="250" type="line"/>
      <point x="136" y="250" type="line"/>
      <point x="136" y="0" type="line"/>
      <point x="63" y="0" type="line"/>
      <point x="63" y="547" type="line"/>
      <point x="136" y="547" type="line"/>
      <point x="136" y="317" type="line"/>
      <point x="443" y="317" type="line"/>
      <point x="443" y="547" type="line"/>
      <point x="516" y="547" type="line"/>
    </contour>
  </outline>
</glyph>
<glyph name="uni04A6" format="1">
  <advance width="1005"/>
  <unicode hex="04A6"/>
  <outline>
    <contour>
      <point x="607" y="737" type="line"/>
      <point x="607" y="452" type="line"/>
      <point x="679" y="452" type="line" smooth="yes"/>
      <point x="910" y="452"/>
      <point x="943" y="328"/>
      <point x="943" y="145" type="curve" smooth="yes"/>
      <point x="943" y="-34"/>
      <point x="909" y="-180"/>
      <point x="739" y="-180" type="curve" smooth="yes"/>
      <point x="675" y="-180" type="line"/>
      <point x="675" y="-113" type="line"/>
      <point x="741" y="-113" type="line" smooth="yes"/>
      <point x="847" y="-113"/>
      <point x="869" y="29"/>
      <point x="869" y="143" type="curve" smooth="yes"/>
      <point x="869" y="262"/>
      <point x="856" y="385"/>
      <point x="682" y="385" type="curve" smooth="yes"/>
      <point x="607" y="385" type="line"/>
      <point x="607" y="0" type="line"/>
      <point x="533" y="0" type="line"/>
      <point x="533" y="672" type="line"/>
      <point x="150" y="672" type="line"/>
      <point x="150" y="0" type="line"/>
      <point x="76" y="0" type="line"/>
      <point x="76" y="739" type="line"/>
    </contour>
  </outline>
</glyph>
<glyph name="uni04A7" format="1">
  <advance width="769"/>
  <unicode hex="04A7"/>
  <outline>
    <contour>
      <point x="466" y="547" type="line"/>
      <point x="466" y="350" type="line"/>
      <point x="478" y="350" type="line" smooth="yes"/>
      <point x="571" y="350"/>
      <point x="628" y="327"/>
      <point x="649" y="310" type="curve" smooth="yes"/>
      <point x="696" y="271"/>
      <point x="726" y="220"/>
      <point x="726" y="147" type="curve" smooth="yes"/>
      <point x="726" y="57" type="line" smooth="yes"/>
      <point x="726" y="0"/>
      <point x="717" y="-67"/>
      <point x="697" y="-104" type="curve" smooth="yes"/>
      <point x="677" y="-141"/>
      <point x="649" y="-168"/>
      <point x="622" y="-179" type="curve" smooth="yes"/>
      <point x="596" y="-190"/>
      <point x="537" y="-201"/>
      <point x="488" y="-201" type="curve"/>
      <point x="488" y="-139" type="line"/>
      <point x="562" y="-139"/>
      <point x="592" y="-123"/>
      <point x="611" y="-101" type="curve" smooth="yes"/>
      <point x="641" y="-67"/>
      <point x="652" y="-21"/>
      <point x="652" y="55" type="curve" smooth="yes"/>
      <point x="652" y="141" type="line" smooth="yes"/>
      <point x="652" y="217"/>
      <point x="612" y="254"/>
      <point x="593" y="266" type="curve" smooth="yes"/>
      <point x="583" y="272"/>
      <point x="529" y="289"/>
      <point x="481" y="289" type="curve" smooth="yes"/>
      <point x="466" y="289" type="line"/>
      <point x="466" y="0" type="line"/>
      <point x="392" y="0" type="line"/>
      <point x="392" y="480" type="line"/>
      <point x="137" y="480" type="line"/>
      <point x="137" y="0" type="line"/>
      <point x="63" y="0" type="line"/>
      <point x="63" y="547" type="line"/>
    </contour>
  </outline>
</glyph>
<glyph name="uni04A8" format="1">
  <advance width="813"/>
  <unicode hex="04A8"/>
  <outline>
    <contour>
      <point x="687" y="93" type="curve"/>
      <point x="718" y="70"/>
      <point x="746" y="56"/>
      <point x="762" y="56" type="curve"/>
      <point x="762" y="0" type="line"/>
      <point x="741" y="0"/>
      <point x="691" y="20"/>
      <point x="641" y="55" type="curve"/>
      <point x="580" y="13"/>
      <point x="505" y="-13"/>
      <point x="432" y="-13" type="curve" smooth="yes"/>
      <point x="211" y="-13"/>
      <point x="44" y="151"/>
      <point x="44" y="367" type="curve" smooth="yes"/>
      <point x="44" y="588"/>
      <point x="207" y="752"/>
      <point x="427" y="752" type="curve" smooth="yes"/>
      <point x="580" y="752"/>
      <point x="710" y="674"/>
      <point x="767" y="547" type="curve"/>
      <point x="684" y="547" type="line"/>
      <point x="656" y="591"/>
      <point x="636" y="613"/>
      <point x="603" y="634" type="curve"/>
      <point x="554" y="667"/>
      <point x="494" y="684"/>
      <point x="430" y="684" type="curve" smooth="yes"/>
      <point x="254" y="684"/>
      <point x="119" y="548"/>
      <point x="119" y="370" type="curve" smooth="yes"/>
      <point x="119" y="197"/>
      <point x="260" y="55"/>
      <point x="431" y="55" type="curve" smooth="yes"/>
      <point x="487" y="55"/>
      <point x="543" y="70"/>
      <point x="588" y="98" type="curve"/>
      <point x="543" y="141"/>
      <point x="507" y="197"/>
      <point x="507" y="261" type="curve" smooth="yes"/>
      <point x="507" y="334"/>
      <point x="538" y="405"/>
      <point x="632" y="405" type="curve" smooth="yes"/>
      <point x="730" y="405"/>
      <point x="770" y="342"/>
      <point x="770" y="266" type="curve" smooth="yes"/>
      <point x="770" y="203"/>
      <point x="737" y="142"/>
    </contour>
    <contour>
      <point x="638" y="137" type="curve"/>
      <point x="653" y="151"/>
      <point x="668" y="168"/>
      <point x="688" y="194" type="curve"/>
      <point x="688" y="194"/>
      <point x="705" y="231"/>
      <point x="705" y="263" type="curve" smooth="yes"/>
      <point x="705" y="303"/>
      <point x="694" y="340"/>
      <point x="635" y="340" type="curve" smooth="yes"/>
      <point x="586" y="340"/>
      <point x="572" y="306"/>
      <point x="572" y="262" type="curve" smooth="yes"/>
      <point x="572" y="220"/>
      <point x="601" y="174"/>
    </contour>
  </outline>
</glyph>
<glyph name="uni04A9" format="1">
  <advance width="647"/>
  <unicode hex="04A9"/>
  <outline>
    <contour>
      <point x="337" y="55" type="curve" smooth="yes"/>
      <point x="400" y="55"/>
      <point x="432" y="72"/>
      <point x="472" y="101" type="curve"/>
      <point x="427" y="144"/>
      <point x="407" y="184"/>
      <point x="407" y="222" type="curve" smooth="yes"/>
      <point x="407" y="285"/>
      <point x="442" y="340"/>
      <point x="508" y="340" type="curve" smooth="yes"/>
      <point x="594" y="340"/>
      <point x="617" y="291"/>
      <point x="617" y="227" type="curve" smooth="yes"/>
      <point x="617" y="164"/>
      <point x="589" y="124"/>
      <point x="565" y="97" type="curve"/>
      <point x="596" y="74"/>
      <point x="626" y="56"/>
      <point x="642" y="56" type="curve"/>
      <point x="642" y="0" type="line"/>
      <point x="621" y="0"/>
      <point x="571" y="23"/>
      <point x="521" y="58" type="curve"/>
      <point x="460" y="16"/>
      <point x="425" y="-13"/>
      <point x="340" y="-13" type="curve" smooth="yes"/>
      <point x="174" y="-13"/>
      <point x="42" y="112"/>
      <point x="42" y="275" type="curve" smooth="yes"/>
      <point x="42" y="434"/>
      <point x="171" y="560"/>
      <point x="335" y="560" type="curve" smooth="yes"/>
      <point x="458" y="560"/>
      <point x="563" y="491"/>
      <point x="607" y="381" type="curve"/>
      <point x="524" y="381" type="line"/>
      <point x="482" y="453"/>
      <point x="415" y="492"/>
      <point x="334" y="492" type="curve" smooth="yes"/>
      <point x="212" y="492"/>
      <point x="117" y="396"/>
      <point x="117" y="273" type="curve" smooth="yes"/>
      <point x="117" y="152"/>
      <point x="216" y="55"/>
    </contour>
    <contour>
      <point x="517" y="145" type="curve"/>
      <point x="537" y="167"/>
      <point x="551" y="180"/>
      <point x="551" y="226" type="curve" smooth="yes"/>
      <point x="551" y="258"/>
      <point x="543" y="274"/>
      <point x="508" y="274" type="curve" smooth="yes"/>
      <point x="489" y="274"/>
      <point x="472" y="252"/>
      <point x="472" y="224" type="curve" smooth="yes"/>
      <point x="472" y="190"/>
      <point x="498" y="163"/>
    </contour>
  </outline>
</glyph>
<glyph name="uni04AA" format="1">
  <advance width="813"/>
  <unicode hex="04AA"/>
  <outline>
    <contour>
      <point x="458" y="-12" type="curve"/>
      <point x="495" y="-39"/>
      <point x="511" y="-66"/>
      <point x="511" y="-101" type="curve" smooth="yes"/>
      <point x="511" y="-153"/>
      <point x="468" y="-191"/>
      <point x="408" y="-191" type="curve" smooth="yes"/>
      <point x="392" y="-191"/>
      <point x="376" y="-188"/>
      <point x="357" y="-182" type="curve"/>
      <point x="357" y="-136" type="line"/>
      <point x="372" y="-143"/>
      <point x="386" y="-146"/>
      <point x="402" y="-146" type="curve" smooth="yes"/>
      <point x="436" y="-146"/>
      <point x="461" y="-125"/>
      <point x="461" y="-97" type="curve" smooth="yes"/>
      <point x="461" y="-73"/>
      <point x="438" y="-41"/>
      <point x="404" y="-12" type="curve"/>
      <point x="197" y="1"/>
      <point x="44" y="160"/>
      <point x="44" y="367" type="curve" smooth="yes"/>
      <point x="44" y="588"/>
      <point x="207" y="752"/>
      <point x="427" y="752" type="curve" smooth="yes"/>
      <point x="580" y="752"/>
      <point x="710" y="674"/>
      <point x="767" y="547" type="curve"/>
      <point x="684" y="547" type="line"/>
      <point x="656" y="591"/>
      <point x="636" y="613"/>
      <point x="603" y="634" type="curve"/>
      <point x="554" y="667"/>
      <point x="494" y="684"/>
      <point x="430" y="684" type="curve" smooth="yes"/>
      <point x="254" y="684"/>
      <point x="119" y="548"/>
      <point x="119" y="370" type="curve" smooth="yes"/>
      <point x="119" y="197"/>
      <point x="260" y="55"/>
      <point x="431" y="55" type="curve" smooth="yes"/>
      <point x="498" y="55"/>
      <point x="565" y="77"/>
      <point x="614" y="116" type="curve" smooth="yes"/>
      <point x="639" y="135"/>
      <point x="657" y="155"/>
      <point x="688" y="194" type="curve"/>
      <point x="770" y="194" type="line"/>
      <point x="700" y="65"/>
      <point x="595" y="-5"/>
    </contour>
  </outline>
</glyph>
<glyph name="uni04AB" format="1">
  <advance width="647"/>
  <unicode hex="04AB"/>
  <outline>
    <contour>
      <point x="366" y="-12" type="curve"/>
      <point x="403" y="-38"/>
      <point x="420" y="-66"/>
      <point x="420" y="-101" type="curve" smooth="yes"/>
      <point x="420" y="-153"/>
      <point x="377" y="-191"/>
      <point x="317" y="-191" type="curve" smooth="yes"/>
      <point x="301" y="-191"/>
      <point x="285" y="-188"/>
      <point x="266" y="-182" type="curve"/>
      <point x="266" y="-136" type="line"/>
      <point x="281" y="-143"/>
      <point x="295" y="-146"/>
      <point x="311" y="-146" type="curve" smooth="yes"/>
      <point x="345" y="-146"/>
      <point x="370" y="-125"/>
      <point x="370" y="-97" type="curve" smooth="yes"/>
      <point x="370" y="-73"/>
      <point x="347" y="-40"/>
      <point x="312" y="-12" type="curve"/>
      <point x="158" y="1"/>
      <point x="42" y="121"/>
      <point x="42" y="275" type="curve" smooth="yes"/>
      <point x="42" y="434"/>
      <point x="171" y="560"/>
      <point x="335" y="560" type="curve" smooth="yes"/>
      <point x="458" y="560"/>
      <point x="563" y="491"/>
      <point x="607" y="381" type="curve"/>
      <point x="524" y="381" type="line"/>
      <point x="482" y="453"/>
      <point x="415" y="492"/>
      <point x="334" y="492" type="curve" smooth="yes"/>
      <point x="212" y="492"/>
      <point x="117" y="396"/>
      <point x="117" y="273" type="curve" smooth="yes"/>
      <point x="117" y="152"/>
      <point x="214" y="55"/>
      <point x="337" y="55" type="curve" smooth="yes"/>
      <point x="414" y="55"/>
      <point x="467" y="85"/>
      <point x="524" y="161" type="curve"/>
      <point x="608" y="161" type="line"/>
      <point x="578" y="104"/>
      <point x="557" y="77"/>
      <point x="522" y="49" type="curve" smooth="yes"/>
      <point x="478" y="14"/>
      <point x="424" y="-7"/>
    </contour>
  </outline>
</glyph>
<glyph name="uni04AC" format="1">
  <advance width="526"/>
  <unicode hex="04AC"/>
  <outline>
    <contour>
      <point x="300" y="67" type="line"/>
      <point x="361" y="67" type="line"/>
      <point x="361" y="-140" type="line"/>
      <point x="287" y="-140" type="line"/>
      <point x="287" y="0" type="line"/>
      <point x="226" y="0" type="line"/>
      <point x="226" y="672" type="line"/>
      <point x="7" y="672" type="line"/>
      <point x="7" y="739" type="line"/>
      <point x="519" y="739" type="line"/>
      <point x="519" y="672" type="line"/>
      <point x="300" y="672" type="line"/>
    </contour>
  </outline>
</glyph>
<glyph name="uni04AD" format="1">
  <advance width="452"/>
  <unicode hex="04AD"/>
  <outline>
    <contour>
      <point x="263" y="67" type="line"/>
      <point x="329" y="67" type="line"/>
      <point x="329" y="-129" type="line"/>
      <point x="255" y="-129" type="line"/>
      <point x="255" y="0" type="line"/>
      <point x="189" y="0" type="line"/>
      <point x="189" y="480" type="line"/>
      <point x="6" y="480" type="line"/>
      <point x="6" y="547" type="line"/>
      <point x="446" y="547" type="line"/>
      <point x="446" y="480" type="line"/>
      <point x="263" y="480" type="line"/>
    </contour>
  </outline>
</glyph>
<glyph name="uni04AF" format="1">
  <advance width="554"/>
  <unicode hex="04AF"/>
  <outline>
    <contour>
      <point x="316" y="0" type="line"/>
      <point x="316" y="-192" type="line"/>
      <point x="238" y="-192" type="line"/>
      <point x="238" y="0" type="line"/>
      <point x="8" y="547" type="line"/>
      <point x="83" y="547" type="line"/>
      <point x="275" y="87" type="line"/>
      <point x="471" y="547" type="line"/>
      <point x="546" y="547" type="line"/>
    </contour>
  </outline>
</glyph>
<glyph name="uni04B2" format="1">
  <advance width="609"/>
  <unicode hex="04B2"/>
  <outline>
    <contour>
      <point x="556" y="67" type="line"/>
      <point x="617" y="67" type="line"/>
      <point x="617" y="-140" type="line"/>
      <point x="543" y="-140" type="line"/>
      <point x="543" y="0" type="line"/>
      <point x="514" y="0" type="line"/>
      <point x="305" y="316" type="line"/>
      <point x="95" y="0" type="line"/>
      <point x="8" y="0" type="line"/>
      <point x="259" y="378" type="line"/>
      <point x="22" y="739" type="line"/>
      <point x="109" y="739" type="line"/>
      <point x="305" y="443" type="line"/>
      <point x="500" y="739" type="line"/>
      <point x="586" y="739" type="line"/>
      <point x="349" y="378" type="line"/>
    </contour>
  </outline>
</glyph>
<glyph name="uni04B3" format="1">
  <advance width="480"/>
  <unicode hex="04B3"/>
  <outline>
    <contour>
      <point x="426" y="67" type="line"/>
      <point x="492" y="67" type="line"/>
      <point x="492" y="-129" type="line"/>
      <point x="418" y="-129" type="line"/>
      <point x="418" y="0" type="line"/>
      <point x="387" y="0" type="line"/>
      <point x="240" y="219" type="line"/>
      <point x="92" y="0" type="line"/>
      <point x="8" y="0" type="line"/>
      <point x="198" y="279" type="line"/>
      <point x="8" y="547" type="line"/>
      <point x="92" y="547" type="line"/>
      <point x="240" y="336" type="line"/>
      <point x="387" y="547" type="line"/>
      <point x="472" y="547" type="line"/>
      <point x="281" y="279" type="line"/>
    </contour>
  </outline>
</glyph>
<glyph name="uni04B4" format="1">
  <advance width="832"/>
  <unicode hex="04B4"/>
  <outline>
    <contour>
      <point x="166" y="672" type="line"/>
      <point x="7" y="672" type="line"/>
      <point x="7" y="739" type="line"/>
      <point x="399" y="739" type="line"/>
      <point x="399" y="672" type="line"/>
      <point x="240" y="672" type="line"/>
      <point x="240" y="67" type="line"/>
      <point x="623" y="67" type="line"/>
      <point x="623" y="739" type="line"/>
      <point x="697" y="739" type="line"/>
      <point x="697" y="67" type="line"/>
      <point x="788" y="67" type="line"/>
      <point x="788" y="-140" type="line"/>
      <point x="714" y="-140" type="line"/>
      <point x="714" y="0" type="line"/>
      <point x="166" y="0" type="line"/>
    </contour>
  </outline>
</glyph>
<glyph name="uni04B5" format="1">
  <advance width="696"/>
  <unicode hex="04B5"/>
  <outline>
    <contour>
      <point x="169" y="480" type="line"/>
      <point x="6" y="480" type="line"/>
      <point x="6" y="547" type="line"/>
      <point x="406" y="547" type="line"/>
      <point x="406" y="480" type="line"/>
      <point x="243" y="480" type="line"/>
      <point x="243" y="67" type="line"/>
      <point x="499" y="67" type="line"/>
      <point x="499" y="547" type="line"/>
      <point x="573" y="547" type="line"/>
      <point x="573" y="67" type="line"/>
      <point x="669" y="67" type="line"/>
      <point x="669" y="-129" type="line"/>
      <point x="595" y="-129" type="line"/>
      <point x="595" y="0" type="line"/>
      <point x="169" y="0" type="line"/>
    </contour>
  </outline>
</glyph>
<glyph name="uni04B8" format="1">
  <advance width="635"/>
  <unicode hex="04B8"/>
  <outline>
    <contour>
      <point x="292" y="300" type="line"/>
      <point x="213" y="300"/>
      <point x="158" y="301"/>
      <point x="114" y="347" type="curve" smooth="yes"/>
      <point x="68" y="395"/>
      <point x="66" y="407"/>
      <point x="66" y="521" type="curve" smooth="yes"/>
      <point x="66" y="740" type="line"/>
      <point x="140" y="740" type="line"/>
      <point x="140" y="515" type="line" smooth="yes"/>
      <point x="140" y="471"/>
      <point x="146" y="429"/>
      <point x="174" y="403" type="curve" smooth="yes"/>
      <point x="217" y="364"/>
      <point x="241" y="366"/>
      <point x="292" y="367" type="curve"/>
      <point x="292" y="495" type="line"/>
      <point x="356" y="495" type="line"/>
      <point x="356" y="367" type="line"/>
      <point x="485" y="367" type="line"/>
      <point x="485" y="739" type="line"/>
      <point x="559" y="739" type="line"/>
      <point x="559" y="0" type="line"/>
      <point x="485" y="0" type="line"/>
      <point x="485" y="300" type="line"/>
      <point x="356" y="300" type="line"/>
      <point x="356" y="157" type="line"/>
      <point x="292" y="157" type="line"/>
    </contour>
  </outline>
</glyph>
<glyph name="uni04BB" format="1">
  <advance width="500"/>
  <unicode hex="04BB"/>
  <outline>
    <contour>
      <point x="437" y="0" type="line"/>
      <point x="363" y="0" type="line"/>
      <point x="363" y="169" type="line" smooth="yes"/>
      <point x="363" y="203"/>
      <point x="351" y="241"/>
      <point x="329" y="259" type="curve" smooth="yes"/>
      <point x="297" y="285"/>
      <point x="285" y="281"/>
      <point x="211" y="281" type="curve" smooth="yes"/>
      <point x="107" y="281" type="line"/>
      <point x="107" y="0" type="line"/>
      <point x="34" y="0" type="line"/>
      <point x="34" y="547" type="line"/>
      <point x="107" y="547" type="line"/>
      <point x="107" y="346" type="line"/>
      <point x="281" y="346" type="line" smooth="yes"/>
      <point x="316" y="346"/>
      <point x="361" y="333"/>
      <point x="396" y="297" type="curve" smooth="yes"/>
      <point x="429" y="264"/>
      <point x="437" y="209"/>
      <point x="437" y="173" type="curve" smooth="yes"/>
    </contour>
  </outline>
</glyph>
<glyph name="uni04BC" format="1">
  <advance width="1014"/>
  <unicode hex="04BC"/>
  <outline>
    <contour>
      <point x="894" y="392" type="line"/>
      <point x="882" y="554"/>
      <point x="746" y="684"/>
      <point x="582" y="684" type="curve" smooth="yes"/>
      <point x="418" y="684"/>
      <point x="282" y="554"/>
      <point x="270" y="392" type="curve"/>
    </contour>
    <contour>
      <point x="970" y="372" type="curve" smooth="yes"/>
      <point x="970" y="325" type="line"/>
      <point x="272" y="325" type="line"/>
      <point x="292" y="169"/>
      <point x="419" y="55"/>
      <point x="580" y="55" type="curve" smooth="yes"/>
      <point x="644" y="55"/>
      <point x="704" y="72"/>
      <point x="754" y="105" type="curve" smooth="yes"/>
      <point x="786" y="126"/>
      <point x="806" y="148"/>
      <point x="834" y="192" type="curve"/>
      <point x="918" y="192" type="line"/>
      <point x="860" y="65"/>
      <point x="730" y="-13"/>
      <point x="578" y="-13" type="curve" smooth="yes"/>
      <point x="371" y="-13"/>
      <point x="214" y="132"/>
      <point x="196" y="332" type="curve"/>
      <point x="169" y="296"/>
      <point x="142" y="280"/>
      <point x="108" y="280" type="curve" smooth="yes"/>
      <point x="56" y="280"/>
      <point x="18" y="323"/>
      <point x="18" y="383" type="curve" smooth="yes"/>
      <point x="18" y="399"/>
      <point x="20" y="415"/>
      <point x="26" y="434" type="curve"/>
      <point x="72" y="434" type="line"/>
      <point x="66" y="419"/>
      <point x="63" y="405"/>
      <point x="63" y="389" type="curve" smooth="yes"/>
      <point x="63" y="355"/>
      <point x="84" y="330"/>
      <point x="112" y="330" type="curve" smooth="yes"/>
      <point x="135" y="330"/>
      <point x="166" y="352"/>
      <point x="194" y="384" type="curve"/>
      <point x="200" y="594"/>
      <point x="366" y="752"/>
      <point x="582" y="752" type="curve" smooth="yes"/>
      <point x="802" y="752"/>
      <point x="970" y="588"/>
    </contour>
  </outline>
</glyph>
<glyph name="uni04BD" format="1">
  <advance width="794"/>
  <unicode hex="04BD"/>
  <outline>
    <contour>
      <point x="755" y="249" type="curve"/>
      <point x="260" y="249" type="line"/>
      <point x="266" y="141"/>
      <point x="361" y="55"/>
      <point x="473" y="55" type="curve" smooth="yes"/>
      <point x="556" y="55"/>
      <point x="633" y="105"/>
      <point x="664" y="180" type="curve"/>
      <point x="741" y="180" type="line"/>
      <point x="726" y="135"/>
      <point x="700" y="97"/>
      <point x="661" y="60" type="curve" smooth="yes"/>
      <point x="611" y="13"/>
      <point x="545" y="-13"/>
      <point x="475" y="-13" type="curve" smooth="yes"/>
      <point x="321" y="-13"/>
      <point x="199" y="102"/>
      <point x="187" y="252" type="curve"/>
      <point x="161" y="219"/>
      <point x="135" y="204"/>
      <point x="102" y="204" type="curve" smooth="yes"/>
      <point x="50" y="204"/>
      <point x="12" y="247"/>
      <point x="12" y="307" type="curve" smooth="yes"/>
      <point x="12" y="323"/>
      <point x="14" y="339"/>
      <point x="20" y="358" type="curve"/>
      <point x="66" y="358" type="line"/>
      <point x="60" y="343"/>
      <point x="56" y="329"/>
      <point x="56" y="313" type="curve" smooth="yes"/>
      <point x="56" y="279"/>
      <point x="78" y="254"/>
      <point x="106" y="254" type="curve" smooth="yes"/>
      <point x="129" y="254"/>
      <point x="159" y="276"/>
      <point x="188" y="308" type="curve"/>
      <point x="203" y="451"/>
      <point x="322" y="560"/>
      <point x="470" y="560" type="curve" smooth="yes"/>
      <point x="574" y="560"/>
      <point x="669" y="505"/>
      <point x="718" y="418" type="curve" smooth="yes"/>
      <point x="745" y="370"/>
      <point x="755" y="324"/>
    </contour>
    <contour>
      <point x="262" y="316" type="curve"/>
      <point x="681" y="316" type="line"/>
      <point x="656" y="425"/>
      <point x="575" y="492"/>
      <point x="469" y="492" type="curve" smooth="yes"/>
      <point x="365" y="492"/>
      <point x="282" y="421"/>
    </contour>
  </outline>
</glyph>
<glyph name="uni04BF" format="1">
  <advance width="794"/>
  <unicode hex="04BF"/>
  <outline>
    <contour>
      <point x="262" y="316" type="curve"/>
      <point x="681" y="316" type="line"/>
      <point x="656" y="425"/>
      <point x="575" y="492"/>
      <point x="469" y="492" type="curve" smooth="yes"/>
      <point x="365" y="492"/>
      <point x="282" y="421"/>
    </contour>
    <contour>
      <point x="755" y="249" type="curve"/>
      <point x="260" y="249" type="line"/>
      <point x="266" y="141"/>
      <point x="361" y="55"/>
      <point x="473" y="55" type="curve" smooth="yes"/>
      <point x="556" y="55"/>
      <point x="633" y="105"/>
      <point x="664" y="180" type="curve"/>
      <point x="741" y="180" type="line"/>
      <point x="726" y="135"/>
      <point x="700" y="97"/>
      <point x="661" y="60" type="curve" smooth="yes"/>
      <point x="617" y="19"/>
      <point x="562" y="-6"/>
      <point x="502" y="-12" type="curve"/>
      <point x="539" y="-39"/>
      <point x="555" y="-66"/>
      <point x="555" y="-101" type="curve" smooth="yes"/>
      <point x="555" y="-153"/>
      <point x="512" y="-191"/>
      <point x="452" y="-191" type="curve" smooth="yes"/>
      <point x="436" y="-191"/>
      <point x="420" y="-188"/>
      <point x="401" y="-182" type="curve"/>
      <point x="401" y="-136" type="line"/>
      <point x="416" y="-143"/>
      <point x="430" y="-146"/>
      <point x="446" y="-146" type="curve" smooth="yes"/>
      <point x="480" y="-146"/>
      <point x="505" y="-125"/>
      <point x="505" y="-97" type="curve" smooth="yes"/>
      <point x="505" y="-73"/>
      <point x="482" y="-41"/>
      <point x="448" y="-12" type="curve"/>
      <point x="307" y="1"/>
      <point x="198" y="111"/>
      <point x="187" y="252" type="curve"/>
      <point x="161" y="219"/>
      <point x="135" y="204"/>
      <point x="102" y="204" type="curve" smooth="yes"/>
      <point x="50" y="204"/>
      <point x="12" y="247"/>
      <point x="12" y="307" type="curve" smooth="yes"/>
      <point x="12" y="323"/>
      <point x="14" y="339"/>
      <point x="20" y="358" type="curve"/>
      <point x="66" y="358" type="line"/>
      <point x="60" y="343"/>
      <point x="56" y="329"/>
      <point x="56" y="313" type="curve" smooth="yes"/>
      <point x="56" y="279"/>
      <point x="78" y="254"/>
      <point x="106" y="254" type="curve" smooth="yes"/>
      <point x="129" y="254"/>
      <point x="159" y="276"/>
      <point x="188" y="308" type="curve"/>
      <point x="203" y="451"/>
      <point x="322" y="560"/>
      <point x="470" y="560" type="curve" smooth="yes"/>
      <point x="574" y="560"/>
      <point x="669" y="505"/>
      <point x="718" y="418" type="curve" smooth="yes"/>
      <point x="745" y="370"/>
      <point x="755" y="324"/>
    </contour>
  </outline>
</glyph>
<glyph name="uni04C0" format="1">
  <advance width="226"/>
  <unicode hex="04C0"/>
  <outline>
    <contour>
      <point x="76" y="0" type="line"/>
      <point x="76" y="739" type="line"/>
      <point x="150" y="739" type="line"/>
      <point x="150" y="0" type="line"/>
    </contour>
  </outline>
</glyph>
<glyph name="uni04C1" format="1">
  <advance width="974"/>
  <unicode hex="04C1"/>
  <outline>
    <contour>
      <point x="338" y="932" type="curve"/>
      <point x="402" y="932" type="line"/>
      <point x="406" y="907"/>
      <point x="413" y="896"/>
      <point x="428" y="886" type="curve"/>
      <point x="446" y="876"/>
      <point x="468" y="870"/>
      <point x="490" y="870" type="curve" smooth="yes"/>
      <point x="512" y="870"/>
      <point x="534" y="876"/>
      <point x="552" y="886" type="curve"/>
      <point x="567" y="896"/>
      <point x="574" y="907"/>
      <point x="578" y="932" type="curve"/>
      <point x="642" y="932" type="line"/>
      <point x="633" y="883"/>
      <point x="621" y="861"/>
      <point x="593" y="841" type="curve" smooth="yes"/>
      <point x="567" y="822"/>
      <point x="532" y="812"/>
      <point x="490" y="812" type="curve" smooth="yes"/>
      <point x="401" y="812"/>
      <point x="353" y="850"/>
    </contour>
    <contour>
      <point x="138" y="0" type="line"/>
      <point x="45" y="0" type="line"/>
      <point x="337" y="379" type="line"/>
      <point x="55" y="739" type="line"/>
      <point x="148" y="739" type="line"/>
      <point x="430" y="379" type="line"/>
    </contour>
    <contour>
      <point x="529" y="0" type="line"/>
      <point x="455" y="0" type="line"/>
      <point x="455" y="739" type="line"/>
      <point x="529" y="739" type="line"/>
    </contour>
    <contour>
      <point x="841" y="0" type="line"/>
      <point x="549" y="379" type="line"/>
      <point x="831" y="739" type="line"/>
      <point x="924" y="739" type="line"/>
      <point x="642" y="379" type="line"/>
      <point x="934" y="0" type="line"/>
    </contour>
  </outline>
</glyph>
<glyph name="uni04C3" format="1">
  <advance width="591"/>
  <unicode hex="04C3"/>
  <outline>
    <contour>
      <point x="165" y="312" type="line"/>
      <point x="165" y="379" type="line"/>
      <point x="467" y="739" type="line"/>
      <point x="560" y="739" type="line"/>
      <point x="258" y="379" type="line"/>
      <point x="473" y="378"/>
      <point x="522" y="256"/>
      <point x="522" y="94" type="curve" smooth="yes"/>
      <point x="522" y="-72"/>
      <point x="477" y="-201"/>
      <point x="318" y="-201" type="curve" smooth="yes"/>
      <point x="254" y="-201" type="line"/>
      <point x="254" y="-134" type="line"/>
      <point x="320" y="-134" type="line" smooth="yes"/>
      <point x="404" y="-134"/>
      <point x="448" y="-2"/>
      <point x="448" y="92" type="curve" smooth="yes"/>
      <point x="448" y="186"/>
      <point x="417" y="312"/>
      <point x="261" y="312" type="curve" smooth="yes"/>
    </contour>
    <contour>
      <point x="150" y="0" type="line"/>
      <point x="76" y="0" type="line"/>
      <point x="76" y="739" type="line"/>
      <point x="150" y="739" type="line"/>
    </contour>
  </outline>
</glyph>
<glyph name="uni04C4" format="1">
  <advance width="538"/>
  <unicode hex="04C4"/>
  <outline>
    <contour>
      <point x="273" y="211" type="curve"/>
      <point x="179" y="211" type="line"/>
      <point x="179" y="272" type="line"/>
      <point x="392" y="547" type="line"/>
      <point x="483" y="547" type="line"/>
      <point x="270" y="272" type="line"/>
      <point x="363" y="272"/>
      <point x="420" y="242"/>
      <point x="441" y="225" type="curve" smooth="yes"/>
      <point x="488" y="186"/>
      <point x="518" y="142"/>
      <point x="518" y="69" type="curve" smooth="yes"/>
      <point x="518" y="40" type="line" smooth="yes"/>
      <point x="518" y="-46"/>
      <point x="505" y="-86"/>
      <point x="485" y="-123" type="curve" smooth="yes"/>
      <point x="465" y="-160"/>
      <point x="441" y="-181"/>
      <point x="414" y="-192" type="curve" smooth="yes"/>
      <point x="388" y="-203"/>
      <point x="329" y="-214"/>
      <point x="280" y="-214" type="curve"/>
      <point x="280" y="-152" type="line"/>
      <point x="354" y="-152"/>
      <point x="384" y="-136"/>
      <point x="403" y="-114" type="curve" smooth="yes"/>
      <point x="433" y="-80"/>
      <point x="444" y="-34"/>
      <point x="444" y="42" type="curve" smooth="yes"/>
      <point x="444" y="63" type="line" smooth="yes"/>
      <point x="444" y="139"/>
      <point x="404" y="169"/>
      <point x="385" y="181" type="curve" smooth="yes"/>
      <point x="375" y="187"/>
      <point x="321" y="213"/>
    </contour>
    <contour>
      <point x="137" y="547" type="line"/>
      <point x="137" y="0" type="line"/>
      <point x="63" y="0" type="line"/>
      <point x="63" y="547" type="line"/>
    </contour>
  </outline>
</glyph>
<glyph name="uni04C8" format="1">
  <advance width="579"/>
  <unicode hex="04C8"/>
  <outline>
    <contour>
      <point x="516" y="95" type="line" smooth="yes"/>
      <point x="516" y="9"/>
      <point x="505" y="-61"/>
      <point x="485" y="-98" type="curve" smooth="yes"/>
      <point x="465" y="-135"/>
      <point x="440" y="-168"/>
      <point x="413" y="-179" type="curve" smooth="yes"/>
      <point x="387" y="-190"/>
      <point x="328" y="-201"/>
      <point x="279" y="-201" type="curve"/>
      <point x="279" y="-139" type="line"/>
      <point x="353" y="-139"/>
      <point x="383" y="-123"/>
      <point x="402" y="-101" type="curve" smooth="yes"/>
      <point x="432" y="-67"/>
      <point x="443" y="-21"/>
      <point x="443" y="55" type="curve" smooth="yes"/>
      <point x="443" y="250" type="line"/>
      <point x="136" y="250" type="line"/>
      <point x="136" y="0" type="line"/>
      <point x="63" y="0" type="line"/>
      <point x="63" y="547" type="line"/>
      <point x="136" y="547" type="line"/>
      <point x="136" y="317" type="line"/>
      <point x="443" y="317" type="line"/>
      <point x="443" y="547" type="line"/>
      <point x="516" y="547" type="line"/>
    </contour>
  </outline>
</glyph>
<glyph name="uni04D0" format="1">
  <advance width="740"/>
  <unicode hex="04D0"/>
  <outline>
    <contour>
      <point x="218" y="932" type="curve"/>
      <point x="282" y="932" type="line"/>
      <point x="286" y="907"/>
      <point x="293" y="896"/>
      <point x="308" y="886" type="curve"/>
      <point x="326" y="876"/>
      <point x="348" y="870"/>
      <point x="370" y="870" type="curve" smooth="yes"/>
      <point x="392" y="870"/>
      <point x="414" y="876"/>
      <point x="432" y="886" type="curve"/>
      <point x="447" y="896"/>
      <point x="454" y="907"/>
      <point x="458" y="932" type="curve"/>
      <point x="522" y="932" type="line"/>
      <point x="513" y="883"/>
      <point x="501" y="861"/>
      <point x="473" y="841" type="curve" smooth="yes"/>
      <point x="447" y="822"/>
      <point x="412" y="812"/>
      <point x="370" y="812" type="curve" smooth="yes"/>
      <point x="281" y="812"/>
      <point x="233" y="850"/>
    </contour>
    <contour>
      <point x="11" y="0" type="line"/>
      <point x="328" y="739" type="line"/>
      <point x="411" y="739" type="line"/>
      <point x="729" y="0" type="line"/>
      <point x="648" y="0" type="line"/>
      <point x="541" y="249" type="line"/>
      <point x="197" y="249" type="line"/>
      <point x="89" y="0" type="line"/>
    </contour>
    <contour>
      <point x="225" y="316" type="line"/>
      <point x="512" y="316" type="line"/>
      <point x="370" y="655" type="line"/>
    </contour>
  </outline>
</glyph>
<glyph name="uni04DA" format="1">
  <advance width="864"/>
  <unicode hex="04DA"/>
  <outline>
    <contour>
      <point x="326" y="938" type="line"/>
      <point x="400" y="938" type="line"/>
      <point x="400" y="812" type="line"/>
      <point x="326" y="812" type="line"/>
    </contour>
    <contour>
      <point x="473" y="938" type="line"/>
      <point x="547" y="938" type="line"/>
      <point x="547" y="812" type="line"/>
      <point x="473" y="812" type="line"/>
    </contour>
    <contour>
      <point x="44" y="367" type="curve" smooth="yes"/>
      <point x="44" y="414" type="line"/>
      <point x="742" y="414" type="line"/>
      <point x="722" y="570"/>
      <point x="595" y="684"/>
      <point x="434" y="684" type="curve" smooth="yes"/>
      <point x="370" y="684"/>
      <point x="310" y="667"/>
      <point x="260" y="634" type="curve" smooth="yes"/>
      <point x="228" y="613"/>
      <point x="208" y="591"/>
      <point x="180" y="547" type="curve"/>
      <point x="96" y="547" type="line"/>
      <point x="154" y="674"/>
      <point x="284" y="752"/>
      <point x="436" y="752" type="curve" smooth="yes"/>
      <point x="656" y="752"/>
      <point x="820" y="588"/>
      <point x="820" y="367" type="curve" smooth="yes"/>
      <point x="820" y="151"/>
      <point x="652" y="-13"/>
      <point x="432" y="-13" type="curve" smooth="yes"/>
      <point x="212" y="-13"/>
      <point x="44" y="151"/>
    </contour>
    <contour>
      <point x="120" y="347" type="line"/>
      <point x="132" y="185"/>
      <point x="268" y="55"/>
      <point x="432" y="55" type="curve" smooth="yes"/>
      <point x="596" y="55"/>
      <point x="732" y="185"/>
      <point x="744" y="347" type="curve"/>
    </contour>
  </outline>
</glyph>
<glyph name="uni04DB" format="1">
  <advance width="650"/>
  <unicode hex="04DB"/>
  <outline>
    <contour>
      <point x="212" y="746" type="line"/>
      <point x="286" y="746" type="line"/>
      <point x="286" y="620" type="line"/>
      <point x="212" y="620" type="line"/>
    </contour>
    <contour>
      <point x="359" y="746" type="line"/>
      <point x="433" y="746" type="line"/>
      <point x="433" y="620" type="line"/>
      <point x="359" y="620" type="line"/>
    </contour>
    <contour>
      <point x="42" y="298" type="curve"/>
      <point x="537" y="298" type="line"/>
      <point x="531" y="406"/>
      <point x="436" y="492"/>
      <point x="324" y="492" type="curve" smooth="yes"/>
      <point x="241" y="492"/>
      <point x="164" y="442"/>
      <point x="133" y="367" type="curve"/>
      <point x="56" y="367" type="line"/>
      <point x="71" y="412"/>
      <point x="97" y="450"/>
      <point x="136" y="487" type="curve" smooth="yes"/>
      <point x="186" y="534"/>
      <point x="252" y="560"/>
      <point x="322" y="560" type="curve" smooth="yes"/>
      <point x="484" y="560"/>
      <point x="611" y="433"/>
      <point x="611" y="271" type="curve" smooth="yes"/>
      <point x="611" y="112"/>
      <point x="486" y="-13"/>
      <point x="327" y="-13" type="curve" smooth="yes"/>
      <point x="223" y="-13"/>
      <point x="128" y="42"/>
      <point x="79" y="129" type="curve" smooth="yes"/>
      <point x="52" y="177"/>
      <point x="42" y="223"/>
    </contour>
    <contour>
      <point x="535" y="231" type="curve"/>
      <point x="116" y="231" type="line"/>
      <point x="141" y="122"/>
      <point x="222" y="55"/>
      <point x="328" y="55" type="curve" smooth="yes"/>
      <point x="432" y="55"/>
      <point x="515" y="126"/>
    </contour>
  </outline>
</glyph>
<glyph name="uni04E1" format="1">
  <advance width="472"/>
  <unicode hex="04E1"/>
  <outline>
    <contour>
      <point x="429" y="560" type="line"/>
      <point x="429" y="488"/>
      <point x="358" y="354"/>
      <point x="296" y="330" type="curve"/>
      <point x="368" y="330"/>
      <point x="449" y="266"/>
      <point x="449" y="151" type="curve" smooth="yes"/>
      <point x="449" y="59"/>
      <point x="366" y="-13"/>
      <point x="232" y="-13" type="curve" smooth="yes"/>
      <point x="58" y="-13"/>
      <point x="23" y="151"/>
      <point x="23" y="151" type="curve"/>
      <point x="90" y="151" type="line"/>
      <point x="90" y="151"/>
      <point x="123" y="55"/>
      <point x="232" y="55" type="curve" smooth="yes"/>
      <point x="314" y="55"/>
      <point x="374" y="96"/>
      <point x="374" y="151" type="curve" smooth="yes"/>
      <point x="374" y="220"/>
      <point x="318" y="262"/>
      <point x="242" y="262" type="curve" smooth="yes"/>
      <point x="170" y="262" type="line"/>
      <point x="170" y="328" type="line"/>
      <point x="248" y="362"/>
      <point x="319" y="412"/>
      <point x="347" y="492" type="curve"/>
      <point x="90" y="492" type="line"/>
      <point x="90" y="560" type="line"/>
    </contour>
  </outline>
</glyph>
<glyph name="uni04EB" format="1">
  <advance width="655"/>
  <unicode hex="04EB"/>
  <outline>
    <contour>
      <point x="329" y="560" type="curve" smooth="yes"/>
      <point x="493" y="560"/>
      <point x="613" y="439"/>
      <point x="613" y="272" type="curve" smooth="yes"/>
      <point x="613" y="108"/>
      <point x="495" y="-13"/>
      <point x="335" y="-13" type="curve" smooth="yes"/>
      <point x="165" y="-13"/>
      <point x="42" y="109"/>
      <point x="42" y="277" type="curve" smooth="yes"/>
      <point x="42" y="437"/>
      <point x="167" y="560"/>
    </contour>
    <contour>
      <point x="536" y="241" type="curve"/>
      <point x="119" y="241" type="line"/>
      <point x="134" y="131"/>
      <point x="218" y="55"/>
      <point x="333" y="55" type="curve" smooth="yes"/>
      <point x="442" y="55"/>
      <point x="524" y="132"/>
    </contour>
    <contour>
      <point x="536" y="305" type="line"/>
      <point x="521" y="414"/>
      <point x="438" y="492"/>
      <point x="329" y="492" type="curve" smooth="yes"/>
      <point x="218" y="492"/>
      <point x="132" y="414"/>
      <point x="119" y="305" type="curve"/>
    </contour>
    <contour>
      <point x="217" y="773" type="line"/>
      <point x="291" y="773" type="line"/>
      <point x="291" y="647" type="line"/>
      <point x="217" y="647" type="line"/>
    </contour>
    <contour>
      <point x="364" y="773" type="line"/>
      <point x="438" y="773" type="line"/>
      <point x="438" y="647" type="line"/>
      <point x="364" y="647" type="line"/>
    </contour>
  </outline>
</glyph>
<glyph name="uni04EE" format="1">
  <advance width="596"/>
  <unicode hex="04EE"/>
  <outline>
    <contour>
      <point x="130" y="876" type="line"/>
      <point x="467" y="876" type="line"/>
      <point x="467" y="812" type="line"/>
      <point x="130" y="812" type="line"/>
    </contour>
    <contour>
      <point x="123" y="0" type="line"/>
      <point x="253" y="247" type="line"/>
      <point x="4" y="739" type="line"/>
      <point x="86" y="739" type="line"/>
      <point x="296" y="325" type="line"/>
      <point x="511" y="739" type="line"/>
      <point x="592" y="739" type="line"/>
      <point x="334" y="247" type="line"/>
      <point x="204" y="0" type="line"/>
    </contour>
  </outline>
</glyph>
<glyph name="uni04F1" format="1">
  <advance width="536"/>
  <unicode hex="04F1"/>
  <outline>
    <contour>
      <point x="158" y="746" type="line"/>
      <point x="232" y="746" type="line"/>
      <point x="232" y="620" type="line"/>
      <point x="158" y="620" type="line"/>
    </contour>
    <contour>
      <point x="305" y="746" type="line"/>
      <point x="379" y="746" type="line"/>
      <point x="379" y="620" type="line"/>
      <point x="305" y="620" type="line"/>
    </contour>
    <contour>
      <point x="132" y="-192" type="line"/>
      <point x="221" y="18" type="line"/>
      <point x="9" y="547" type="line"/>
      <point x="90" y="547" type="line"/>
      <point x="263" y="111" type="line"/>
      <point x="448" y="547" type="line"/>
      <point x="527" y="547" type="line"/>
      <point x="211" y="-192" type="line"/>
    </contour>
  </outline>
</glyph>
<glyph name="uni04F3" format="1">
  <advance width="536"/>
  <unicode hex="04F3"/>
  <outline>
    <contour>
      <point x="135" y="667" type="line"/>
      <point x="306" y="790" type="line"/>
      <point x="344" y="741" type="line"/>
      <point x="170" y="620" type="line"/>
    </contour>
    <contour>
      <point x="331" y="667" type="line"/>
      <point x="502" y="790" type="line"/>
      <point x="540" y="741" type="line"/>
      <point x="366" y="620" type="line"/>
    </contour>
    <contour>
      <point x="132" y="-192" type="line"/>
      <point x="221" y="18" type="line"/>
      <point x="9" y="547" type="line"/>
      <point x="90" y="547" type="line"/>
      <point x="263" y="111" type="line"/>
      <point x="448" y="547" type="line"/>
      <point x="527" y="547" type="line"/>
      <point x="211" y="-192" type="line"/>
    </contour>
  </outline>
</glyph>
<glyph name="afii61352" format="1">
  <advance width="1017"/>
  <unicode hex="2116"/>
  <outline>
    <contour>
      <point x="112" y="76" type="line"/>
      <point x="112" y="739" type="line"/>
      <point x="212" y="739" type="line"/>
      <point x="552" y="140" type="line"/>
      <point x="552" y="739" type="line"/>
      <point x="775" y="739" type="line"/>
      <point x="775" y="663" type="line"/>
      <point x="626" y="663" type="line"/>
      <point x="626" y="0" type="line"/>
      <point x="552" y="0" type="line"/>
      <point x="186" y="635" type="line"/>
      <point x="186" y="0" type="line"/>
      <point x="35" y="0" type="line"/>
      <point x="35" y="76" type="line"/>
    </contour>
    <contour>
      <point x="650" y="200" type="line"/>
      <point x="950" y="200" type="line"/>
      <point x="950" y="136" type="line"/>
      <point x="650" y="136" type="line"/>
    </contour>
    <contour>
      <point x="805" y="565" type="curve" smooth="yes"/>
      <point x="887" y="565"/>
      <point x="951" y="498"/>
      <point x="951" y="412" type="curve" smooth="yes"/>
      <point x="951" y="326"/>
      <point x="885" y="259"/>
      <point x="801" y="259" type="curve" smooth="yes"/>
      <point x="717" y="259"/>
      <point x="651" y="327"/>
      <point x="651" y="413" type="curve" smooth="yes"/>
      <point x="651" y="498"/>
      <point x="719" y="565"/>
    </contour>
    <contour>
      <point x="803" y="508" type="curve" smooth="yes"/>
      <point x="749" y="508"/>
      <point x="707" y="465"/>
      <point x="707" y="412" type="curve" smooth="yes"/>
      <point x="707" y="359"/>
      <point x="750" y="316"/>
      <point x="801" y="316" type="curve" smooth="yes"/>
      <point x="853" y="316"/>
      <point x="894" y="358"/>
      <point x="894" y="412" type="curve" smooth="yes"/>
      <point x="894" y="465"/>
      <point x="853" y="508"/>
    </contour>
  </outline>
</glyph>
<glyph name="fi" format="1">
  <advance width="487"/>
  <unicode hex="FB01"/>
  <outline>
    <contour>
      <point x="98" y="0" type="line"/>
      <point x="98" y="480" type="line"/>
      <point x="13" y="480" type="line"/>
      <point x="13" y="547" type="line"/>
      <point x="98" y="547" type="line"/>
      <point x="96" y="674"/>
      <point x="167" y="739"/>
      <point x="308" y="739" type="curve"/>
      <point x="308" y="672" type="line"/>
      <point x="207" y="671"/>
      <point x="171" y="638"/>
      <point x="172" y="547" type="curve"/>
      <point x="308" y="547" type="line"/>
      <point x="308" y="480" type="line"/>
      <point x="172" y="480" type="line"/>
      <point x="172" y="0" type="line"/>
    </contour>
    <contour>
      <point x="350" y="0" type="line"/>
      <point x="350" y="547" type="line"/>
      <point x="424" y="547" type="line"/>
      <point x="424" y="0" type="line"/>
    </contour>
    <contour>
      <point x="350" y="613" type="line"/>
      <point x="350" y="739" type="line"/>
      <point x="424" y="739" type="line"/>
      <point x="424" y="613" type="line"/>
    </contour>
  </outline>
</glyph>
<glyph name="Space" format="1">
  <advance width="0"/>
  <outline>
    <contour>
      <point x="620" y="0"/>
      <point x="546" y="0"/>
      <point x="546" y="96"/>
      <point x="335" y="-13"/>
      <point x="42" y="272"/>
      <point x="330" y="560"/>
      <point x="546" y="450"/>
      <point x="546" y="547"/>
      <point x="620" y="547"/>
    </contour>
    <contour>
      <point x="117" y="277"/>
      <point x="336" y="55"/>
      <point x="546" y="276"/>
      <point x="332" y="492"/>
    </contour>
  </outline>
</glyph>
<glyph name="commaaccent" format="1">
  <advance width="351"/>
  <outline>
    <contour>
      <point x="101" y="-225" type="line"/>
      <point x="149" y="-53" type="line"/>
      <point x="223" y="-53" type="line"/>
      <point x="175" y="-225" type="line"/>
    </contour>
  </outline>
</glyph>
